<svg width="275" height="219" viewBox="0 0 275 219" fill="none" xmlns="http://www.w3.org/2000/svg">
<path d="M273.121 149.846C273.243 149.812 273.365 149.78 273.487 149.747L273.315 149.125C273.166 149.166 273.017 149.206 272.868 149.247C269.993 142.455 264.537 136.815 258.525 131.66C248.573 123.128 240.018 113.011 231.745 103.227C225.395 95.7184 218.857 88.0114 211.687 81.0003L211.673 80.7616C211.598 80.7659 211.527 80.7659 211.453 80.7702C209.968 79.325 208.467 77.8991 206.923 76.5231C197.215 67.8687 185.454 63.0036 172.767 60.3097C172.662 60.1608 172.556 60.0119 172.439 59.867C172.266 59.5929 172.092 59.321 171.921 59.0438C171.668 58.192 171.414 57.3328 171.158 56.4635C169.798 51.8534 168.357 46.9751 166.718 42.1709C165.826 38.0342 164.755 34.0406 163.451 30.3497C162.95 25.6984 160.551 18.6649 157.001 13.0412C156.219 11.499 155.294 9.97753 154.251 8.56461C150.819 3.91577 146.78 1.31356 142.847 1.19543L142.7 0L142.318 1.18744C137.619 1.22404 130.779 2.41025 125.329 4.99738C120.584 6.12452 115.949 7.88414 112.843 10.6312C109.932 11.5756 107.373 12.8191 105.458 14.4455C104.301 15.4284 103.406 16.5247 102.764 17.7214C100.073 18.5861 98.2488 19.6161 97.0256 20.6478C96.3247 21.2388 95.7565 21.8848 95.3118 22.5785C93.68 23.5558 92.0427 24.5784 90.3949 25.6501C89.6894 25.9233 89.0782 26.2605 88.5748 26.6705C88.356 26.8486 88.1634 27.0437 87.9831 27.247C84.9396 29.294 81.854 31.4889 78.6938 33.8234C73.6655 37.5383 68.7117 41.1446 63.7552 44.5987L63.6352 44.6466L63.6226 44.6912C61.2887 46.3161 58.9537 47.9066 56.6102 49.4573C56.0828 49.3429 55.7769 49.2755 55.738 49.2669L55.2989 49.17L55.3464 49.6157C55.3473 49.6262 55.4447 49.7991 55.6261 50.1073C53.9706 51.1935 52.3094 52.2585 50.6409 53.3029C48.6205 53.2392 47.3512 53.3792 46.8698 53.7677L46.6964 53.9437L46.7586 54.1507C46.7984 54.2827 47.1031 54.6288 47.637 55.1533C46.2719 55.9811 44.9 56.7932 43.5204 57.5894C40.8423 57.2036 38.8183 57.1849 37.8591 57.8419C37.2655 58.2489 36.9284 59.0143 36.8571 60.1175C36.8503 60.2196 36.8559 60.3371 36.8541 60.4451C33.5059 60.2497 30.5796 60.4611 28.3753 61.4424C27.7334 61.7282 27.2633 62.2844 26.9235 63.0285C23.713 63.1269 20.7625 63.5401 18.285 64.4928C17.7705 64.6906 17.3119 64.9632 16.9024 65.2979C13.6221 65.5283 10.4741 65.9989 7.56275 66.8566C5.18808 67.5561 3.34111 69.1133 2.07322 71.4845C-1.89927 78.9152 0.716695 92.5187 2.65587 98.6737C6.50892 110.91 14.6511 122.905 28.28 136.423C56.3109 164.226 94.8834 179.469 142.926 181.727C162.088 182.628 180.33 190.358 202.076 206.789C203.093 207.558 204.094 208.333 205.086 209.102C211.602 214.151 217.859 219 225.326 219C228.31 219 231.488 218.225 234.951 216.38C250.66 208.012 264.065 189.24 270.771 175.708C275.916 165.326 275.941 156.956 273.121 149.846ZM231.25 103.643C239.54 113.446 248.112 123.583 258.103 132.149C264.566 137.69 269.626 143.208 272.313 149.398C263.231 151.869 254.112 153.967 245.256 155.031C244.581 146.912 242.605 139.534 239.795 134.392C238.676 132.345 237.54 130.242 236.383 128.1C234.065 123.809 231.672 119.379 229.174 114.943C231.319 115.106 233.518 115.197 235.788 115.197C237.103 115.197 238.442 115.17 239.801 115.116L239.774 114.471C235.942 114.624 232.287 114.559 228.796 114.272C222.158 102.528 214.774 90.7859 206.091 81.4768C206.733 81.5002 207.378 81.5205 208.042 81.5205C209.066 81.5205 210.124 81.4864 211.202 81.4291C218.364 88.4286 224.901 96.1349 231.25 103.643ZM239.871 186.468C237.938 190.736 235.512 194.329 232.658 197.196C226.082 194.744 219.948 191.611 214.26 187.801C216.615 185.341 218.369 181.993 219.454 178.739C222.086 170.843 223.819 163.179 224.656 155.92C227.533 156.269 230.471 156.43 233.455 156.43C237.128 156.43 240.874 156.18 244.668 155.745C245.417 165.862 244.126 177.071 239.871 186.468ZM14.7688 71.6411C18.6903 70.2786 22.4956 68.7707 26.2107 67.1368C26.1085 74.3833 29.6221 85.7227 29.6718 85.8808C31.3014 91.0787 33.9511 96.1933 37.6729 101.314C34.1575 104.573 30.5119 107.734 26.7159 110.774C21.9431 104.142 18.6974 97.5933 16.9197 91.0012C15.4481 85.5415 14.0006 77.402 14.7688 71.6411ZM17.1779 65.9276C18.2369 65.8571 19.3095 65.8094 20.3938 65.7842C19.7185 65.9639 19.0446 66.15 18.3672 66.322L18.5264 66.9471C20.0066 66.5711 21.4804 66.1728 22.9514 65.7611C24.0541 65.7648 25.1647 65.7858 26.2804 65.8174C26.2628 66.0149 26.246 66.2131 26.2356 66.4192C22.5458 68.0502 18.7705 69.5594 14.8786 70.9219C15.2517 68.7642 15.9761 67.0024 17.1779 65.9276ZM29.9276 63.6644C30.6094 63.6804 31.2981 63.7047 31.996 63.74C30.938 64.2572 29.8726 64.7623 28.8007 65.2585C28.2053 65.2336 27.6103 65.2114 27.0162 65.1917C27.0471 64.9641 27.0838 64.7466 27.1264 64.5386C28.0606 64.2535 28.9946 63.9649 29.9276 63.6644ZM27.3136 63.8043C27.3294 63.7551 27.3453 63.7065 27.3622 63.6591C27.5061 63.6561 27.652 63.6551 27.797 63.6533C27.6359 63.7034 27.4748 63.7548 27.3136 63.8043ZM50.8447 53.9379C51.3851 53.9609 51.9756 53.9969 52.6175 54.0465C51.4352 54.594 50.2561 55.1308 49.0826 55.6498C48.9397 55.5197 48.8026 55.3948 48.6767 55.2782C49.4011 54.8355 50.1237 54.3885 50.8447 53.9379ZM53.9187 54.1578C55.2727 54.2833 56.7974 54.4528 58.4616 54.6571C59.7761 56.6856 61.4282 59.1395 63.2773 61.6783C60.1597 61.1314 56.8576 60.3922 53.7595 59.6883C52.0592 58.2674 50.6628 57.0636 49.6107 56.1248C51.04 55.4904 52.4758 54.8346 53.9187 54.1578ZM56.7411 50.1461C57.3964 50.2882 58.3192 50.4869 59.4726 50.7327C58.7754 51.0828 58.0747 51.4412 57.3818 51.7811C57.0152 51.192 56.7149 50.7004 56.4831 50.3174C56.5692 50.2608 56.655 50.203 56.7411 50.1461ZM60.4831 50.9474C63.6374 51.6159 68.1282 52.5511 73.4096 53.6047C74.2815 54.4131 75.1468 55.2136 75.9847 55.9814C75.7489 56.1125 75.513 56.2432 75.2762 56.3724C68.685 55.3942 63.1837 54.5962 58.8248 54.0572C58.423 53.4343 58.0532 52.8529 57.7264 52.3321C58.6399 51.8835 59.5621 51.4138 60.4831 50.9474ZM64.562 44.8238C66.8929 43.1953 69.2244 41.5332 71.5629 39.8418C71.5413 39.9172 71.5145 39.9858 71.504 40.0753C71.3617 41.2486 71.7978 42.417 72.7996 43.5475C72.8043 43.553 72.8101 43.5583 72.8151 43.5638C70.8475 44.6869 68.9027 45.7686 66.9784 46.812C65.7676 45.7347 65.0299 45.1296 64.562 44.8238ZM66.1589 46.9489C65.3151 46.4909 64.7148 46.0488 64.3963 45.6292C64.3268 45.5372 64.2744 45.4499 64.2401 45.3665C64.6389 45.6409 65.316 46.2063 66.1589 46.9489ZM79.8446 35.3419C79.9508 34.3486 80.3441 33.6659 81.0468 33.255C81.6042 32.9286 82.3298 32.7898 83.1674 32.7898C84.3143 32.7898 85.6708 33.0535 87.0834 33.4506C87.2047 33.8834 87.3596 34.3092 87.5432 34.7285C87.2451 34.9121 86.9487 35.0946 86.6496 35.2788C85.3101 36.1045 83.9684 36.932 82.6215 37.7586C81.9573 38.1659 81.3066 38.5526 80.6486 38.9513C79.9881 37.7875 79.7119 36.5798 79.8446 35.3419ZM87.382 30.6118C87.4172 29.4613 87.7668 28.5 88.4134 27.7365C89.1803 27.2212 89.9448 26.7148 90.7069 26.2192C91.6769 25.8519 92.8553 25.6212 94.2371 25.5259C94.2124 25.7132 94.1867 25.9002 94.1762 26.0922C94.1062 27.3313 94.2387 28.5197 94.5541 29.6579C94.2276 30.1129 93.9031 30.5688 93.5815 31.0259C92.2186 31.8549 90.8531 32.6914 89.4834 33.5337C88.8627 33.3153 88.2419 33.1128 87.6261 32.9313C87.4477 32.1767 87.3579 31.4046 87.382 30.6118ZM102.007 19.5687C101.917 19.8711 101.843 20.1796 101.782 20.4925C100.518 21.9162 99.2901 23.3995 98.096 24.922C96.9929 24.8408 95.9685 24.8152 95.0228 24.8445C95.1833 24.2126 95.4402 23.6146 95.7859 23.0495C97.8646 21.8085 99.935 20.6466 102.007 19.5687ZM162.902 32.0337C162.448 30.7549 161.949 29.4376 161.402 28.1087C161.269 27.3436 161.128 26.5998 160.978 25.8812C161.638 27.3482 162.249 28.8891 162.816 30.4885C162.873 31.0474 162.902 31.5652 162.902 32.0337ZM224.092 155.191C218.506 154.454 213.156 152.988 208.138 150.588C209.868 143.923 211.087 136.835 211.15 129.93C211.205 123.997 210.477 117.138 208.913 110.171C211.692 111.377 214.61 112.361 217.676 113.128C220.349 120.453 222.287 127.634 223.474 133.799C224.728 140.306 224.922 147.512 224.092 155.191ZM26.8902 66.836C27.5738 66.5314 28.2544 66.2229 28.9322 65.91C30.8232 65.99 32.7189 66.0912 34.6012 66.1934C35.7222 66.2543 36.8503 66.3137 37.9802 66.3703C40.015 72.9424 44.5197 82.1607 49.2731 89.7353C45.7129 93.5481 42.012 97.2685 38.1507 100.87C34.4958 95.8291 31.891 90.7973 30.2898 85.6885C28.7827 80.8782 26.7571 72.2788 26.8902 66.836ZM26.922 66.1146C26.9282 66.0202 26.938 65.9319 26.9457 65.8396C27.1309 65.8457 27.3161 65.8513 27.5013 65.8581C27.309 65.9451 27.1146 66.0285 26.922 66.1146ZM113.777 11.009C115.357 10.5322 117.03 10.1384 118.762 9.82095C118.063 10.6872 117.51 11.6233 117.138 12.6339C114.868 13.3125 112.627 14.0963 110.406 14.9829C110.905 13.7853 111.647 12.7126 112.579 11.7544C112.975 11.4969 113.375 11.2486 113.777 11.009ZM124.726 9.01436C124.22 9.66129 123.721 10.3553 123.228 11.0914C121.436 11.4643 119.668 11.9014 117.919 12.4038C118.346 11.4114 118.956 10.494 119.721 9.65207C121.362 9.37951 123.041 9.17094 124.726 9.01436ZM127.402 6.99387C127.433 6.99356 127.464 6.99295 127.496 6.99264C127.04 7.3864 126.62 7.80293 126.247 8.24468C126.233 8.24591 126.218 8.24714 126.204 8.24806C126.6 7.79493 127 7.37871 127.402 6.99387ZM79.3765 54.7774C86.8804 56.2306 95.3709 57.7893 103.634 59.1238C103.597 59.1503 103.56 59.173 103.523 59.1995C101.971 59.381 100.421 59.5705 98.8723 59.7655C91.6551 58.8063 84.4387 57.7361 77.7851 56.7456C77.5712 56.5521 77.3542 56.3552 77.1357 56.1558C77.1657 56.1134 77.1965 56.0709 77.2271 56.0285C77.9481 55.6193 78.6641 55.2013 79.3765 54.7774ZM78.12 54.7672C78.1685 54.6989 78.2173 54.6303 78.2654 54.5617C78.3185 54.5719 78.3705 54.5823 78.4233 54.5925C78.323 54.6516 78.2209 54.7085 78.12 54.7672ZM109.694 18.229C109.713 17.7479 109.769 17.2843 109.853 16.8342C111.834 16.5647 114.077 16.3632 116.618 16.2503C116.662 16.8902 116.776 17.5101 116.966 18.1062C114.657 19.1943 112.375 20.3371 110.113 21.5292C109.796 20.5174 109.645 19.4198 109.694 18.229ZM117.634 13.1691C119.312 12.6751 121.007 12.237 122.723 11.8633C121.997 12.9996 121.285 14.2225 120.589 15.516C119.424 15.5256 118.309 15.5508 117.245 15.5917C117.247 15.416 117.246 15.2407 117.259 15.0617C117.308 14.4027 117.44 13.7739 117.634 13.1691ZM148.889 5.71138C149.418 6.1639 149.931 6.65148 150.411 7.19598C151.206 8.09733 151.887 9.07311 152.444 10.0877C152.443 10.0867 152.442 10.0858 152.44 10.0852C151.035 9.23154 149.483 8.7298 147.794 8.57568C147.64 8.34712 147.476 8.12163 147.292 7.90352C146.813 7.33626 146.258 6.85452 145.657 6.45184C146.821 5.83412 147.9 5.58864 148.889 5.71138ZM159.107 23.0861C158.462 21.8184 157.77 20.574 157.032 19.3786C156.989 19.1682 156.946 18.958 156.902 18.7489C157.681 19.8099 158.414 20.9518 159.101 22.1654C159.116 22.4847 159.12 22.7929 159.107 23.0861ZM169.039 60.7736C169.093 61.2283 169.146 61.682 169.198 62.1342C167.565 61.8362 165.916 61.5737 164.253 61.3476C163.944 61.0388 163.638 60.7142 163.334 60.374C163.333 60.3672 163.332 60.3608 163.331 60.354C163.331 60.0187 163.331 59.6855 163.33 59.3496C164.737 59.5366 166.134 59.7477 167.524 59.9781C168.045 60.2316 168.55 60.4974 169.039 60.7736ZM175.218 66.2438C175.267 66.3189 175.309 66.397 175.356 66.4727C174.936 66.3339 174.514 66.1986 174.089 66.0691C174.035 65.907 173.983 65.7476 173.93 65.5836C173.93 65.5803 173.931 65.5769 173.931 65.5738C174.265 65.6615 174.6 65.7461 174.932 65.839C175.028 65.9737 175.128 66.106 175.218 66.2438ZM199.96 123.513C198.994 130.143 197.449 136.095 195.288 141.513C194.347 140.584 193.425 139.604 192.524 138.566C190.24 135.935 188.228 133.109 186.437 130.137C189.007 125.334 190.842 120.463 192.134 115.156C193.264 110.516 193.804 105.273 193.572 99.9467C195.597 101.879 197.722 103.624 199.955 105.178C200.814 111.662 200.757 118.044 199.96 123.513ZM184.409 154.985C183.655 152.998 182.988 150.965 182.343 148.961C181.532 146.439 180.693 143.831 179.674 141.376C179.598 141.192 179.519 141.016 179.443 140.834C182.059 137.431 184.247 134.123 186.077 130.793C187.837 133.677 189.808 136.423 192.035 138.989C193.009 140.111 194.008 141.165 195.028 142.162C193.937 144.814 192.697 147.338 191.298 149.747C190.017 151.953 188.812 153.357 187.844 154.485C186.882 155.606 186.157 156.465 185.907 157.523C185.4 156.688 184.901 155.841 184.409 154.985ZM170.276 126.117C170.307 126.156 170.338 126.194 170.369 126.234C170.304 126.282 170.241 126.334 170.176 126.382C170.212 126.295 170.241 126.205 170.276 126.117ZM170.543 125.409C170.64 125.135 170.729 124.859 170.815 124.58C170.923 124.934 171.032 125.288 171.142 125.639C171.057 125.706 170.971 125.77 170.886 125.836C170.772 125.692 170.657 125.551 170.543 125.409ZM108.006 51.3996C109.142 51.6181 110.28 51.8245 111.412 52.0183C110.747 52.7418 110.079 53.433 109.41 54.1043C108.705 54.0182 108.003 53.9225 107.303 53.8191C107.358 53.6284 107.414 53.4367 107.472 53.2377C107.638 52.6658 107.816 52.0503 108.006 51.3996ZM111.381 40.3316C114.393 40.6161 117.427 40.7459 120.418 40.7973C119.912 41.4993 119.402 42.1976 118.887 42.8886C116.292 42.413 113.663 41.8199 111.14 41.0837C111.22 40.8339 111.3 40.5838 111.381 40.3316ZM110.507 40.8998C109.451 40.5792 108.419 40.2291 107.416 39.8541C108.508 40.016 109.607 40.1513 110.71 40.2645C110.642 40.4771 110.574 40.6887 110.507 40.8998ZM120.464 17.2181C121.277 16.8585 122.092 16.502 122.914 16.1577C123.694 16.166 124.495 16.1814 125.32 16.2039C125.5 16.47 125.698 16.7318 125.929 16.9843C126.34 17.4359 126.822 17.8472 127.351 18.2253C125.335 19.6484 123.349 21.1044 121.387 22.5825C120.556 22.0183 119.807 21.388 119.181 20.6798C119.093 20.5805 119.017 20.4771 118.935 20.3756C119.435 19.2924 119.945 18.237 120.464 17.2181ZM118.474 19.7477C118.196 19.3275 117.964 18.8916 117.78 18.4409C118.348 18.1755 118.915 17.9069 119.487 17.6488C119.145 18.3348 118.807 19.034 118.474 19.7477ZM120.933 16.3109C120.961 16.2571 120.99 16.2023 121.018 16.1485C121.117 16.1482 121.213 16.147 121.312 16.147C121.186 16.2014 121.059 16.2559 120.933 16.3109ZM132.995 10.8158C133.009 10.6755 133.038 10.534 133.077 10.3919C134.862 10.2685 136.676 10.2055 138.526 10.2104C136.687 10.6808 134.872 11.188 133.088 11.7464C132.999 11.4464 132.961 11.137 132.995 10.8158ZM158.929 24.352C158.483 23.5986 158.028 22.8615 157.556 22.1478C157.516 21.9239 157.476 21.6999 157.435 21.476C157.96 22.4127 158.459 23.3709 158.931 24.3403C158.93 24.3443 158.93 24.348 158.929 24.352ZM161.806 56.8978C161.684 56.0303 161.564 55.1711 161.442 54.319C161.577 54.3621 161.708 54.4073 161.841 54.451C161.87 54.6543 161.899 54.8617 161.928 55.065C162.03 55.7888 162.135 56.525 162.238 57.2528C162.106 57.2122 161.972 57.1738 161.839 57.1341L161.806 56.8978ZM191.504 115.004C190.257 120.128 188.494 124.842 186.047 129.486C183.669 125.437 181.699 121.121 180.027 116.645C182.165 113.273 183.956 109.417 185.417 105.036C186.788 100.927 187.536 97.0581 187.673 93.4364C189.333 95.5492 191.072 97.4992 192.891 99.2933C193.198 104.788 192.669 110.22 191.504 115.004ZM69.8707 64.9869C69.3442 65.6867 68.8142 66.3856 68.2818 67.0833C67.7685 66.4721 67.2609 65.8504 66.7606 65.2213C67.7979 65.149 68.8334 65.0647 69.8707 64.9869ZM70.728 64.9216C72.5376 64.7835 74.3423 64.6442 76.146 64.4937C79.7151 64.4107 83.2893 64.2975 86.8557 64.163C91.4405 66.5699 96.4307 68.2185 101.603 69.3754C99.9374 74.3984 98.2528 79.4382 96.5287 84.4814C88.939 82.2145 81.7296 78.9798 75.3957 74.1735C73.2013 72.5083 70.9132 70.1691 68.7092 67.5891C69.387 66.7016 70.0598 65.8125 70.728 64.9216ZM106.251 59.5397C108.898 59.9538 111.508 60.3408 114.039 60.6896C112.373 60.7967 110.71 60.9102 109.047 61.032C107.771 60.8859 106.485 60.7333 105.194 60.5752L105.509 59.6222C105.756 59.5942 106.003 59.5671 106.251 59.5397ZM109.158 55.2545C114.905 56.1832 120.464 56.8914 125.134 57.3636C121.531 57.5269 117.921 57.7724 114.31 58.0871C112.017 57.7583 109.655 57.3962 107.263 57.007C107.895 56.4469 108.527 55.8685 109.158 55.2545ZM115.852 27.6682C115.955 27.587 116.058 27.5051 116.161 27.4239C119.63 27.554 123.089 27.5845 126.498 27.6079C127.427 27.6143 128.345 27.6217 129.257 27.63C128.37 29.0269 127.45 30.4577 126.504 31.9036C122.726 31.0942 118.822 29.8646 115.726 27.9906C115.768 27.8829 115.81 27.7755 115.852 27.6682ZM131.052 16.4571C132.626 16.5527 134.279 16.6755 135.992 16.8194C135.35 17.8503 134.667 18.9525 133.948 20.116C133.915 20.1689 133.881 20.2245 133.848 20.2778C131.968 19.828 130.061 19.1543 128.493 18.2102C129.34 17.6183 130.194 17.0351 131.052 16.4571ZM127.91 17.8284C127.348 17.4418 126.836 17.0197 126.408 16.5503C126.311 16.4438 126.224 16.3343 126.137 16.2251C127.364 16.2654 128.653 16.326 129.979 16.3989C129.285 16.8711 128.596 17.3476 127.91 17.8284ZM143.035 9.64591C143.036 9.65606 143.036 9.66621 143.037 9.67637C143.006 9.6736 142.974 9.67114 142.942 9.66868C142.973 9.66099 143.004 9.6536 143.035 9.64591ZM148.196 12.1684C148.181 12.2678 148.157 12.3622 148.131 12.4564C146.816 11.635 145.43 10.9512 143.962 10.427C145.468 10.6331 146.886 11.0133 148.216 11.563C148.226 11.7713 148.224 11.9756 148.196 12.1684ZM155.157 27.1184C153.919 25.0072 152.614 22.9446 151.223 20.9524C151.328 20.9241 151.441 20.9001 151.542 20.869C153.445 22.4395 154.875 24.4805 156.041 26.8757C155.762 26.9659 155.465 27.0458 155.157 27.1184ZM156.315 27.4574C157.063 29.0891 157.703 30.8727 158.291 32.7784C157.388 31.0647 156.457 29.3675 155.49 27.6968C155.775 27.6242 156.052 27.5454 156.315 27.4574ZM187.042 91.5236C185.366 89.2681 183.774 86.8351 182.259 84.2291C182.462 81.2584 182.138 78.5144 181.291 76.0079C181.679 76.4681 182.054 76.9341 182.401 77.4125C185.367 81.4947 186.914 86.2143 187.042 91.5236ZM173.545 118.639C172.842 115.477 172.174 112.316 171.532 109.158C171.39 107.99 171.225 106.832 171.044 105.693C172.463 104.79 173.793 103.66 175.005 102.329C176.202 107.164 177.597 111.947 179.305 116.565C177.923 118.708 176.399 120.653 174.719 122.398C174.354 121.108 173.963 119.853 173.545 118.639ZM171.961 114.515C171.96 114.473 171.96 114.432 171.959 114.39C171.975 114.467 171.99 114.544 172.007 114.62C171.992 114.585 171.976 114.55 171.961 114.515ZM166.19 103.208C166.117 101.749 166.052 100.285 165.989 98.8445C165.86 95.9048 165.73 92.9503 165.535 90.0414C166.811 92.5197 167.89 95.2351 168.747 98.1732C169.196 100.609 169.661 103.048 170.14 105.49C169.37 105.939 168.575 106.319 167.76 106.624C167.355 106.01 166.942 105.408 166.515 104.83C166.406 104.29 166.296 103.751 166.19 103.208ZM109.003 61.6823C110.987 61.9094 112.948 62.1198 114.878 62.3108C111.394 62.4502 107.918 62.604 104.473 62.76C104.555 62.5095 104.638 62.2585 104.721 62.0081C106.146 61.8943 107.574 61.7875 109.003 61.6823ZM141.281 27.3667C140.867 27.3393 140.468 27.3129 140.086 27.2889C140.107 26.8859 140.127 26.4823 140.148 26.0799C140.223 24.5814 140.298 23.1058 140.377 21.6544L140.552 21.6541C141.619 21.6519 142.639 21.6495 143.609 21.6387C143.654 23.594 143.677 25.5548 143.685 27.5184C142.838 27.4694 142.029 27.4162 141.281 27.3667ZM140.551 21.0087L140.413 21.009C140.484 19.737 140.559 18.4846 140.643 17.2563C141.332 17.327 142.016 17.3959 142.726 17.4744L142.906 17.4941C143.08 17.5134 143.246 17.5399 143.416 17.5627C143.44 17.6353 143.464 17.7088 143.489 17.7823C143.529 18.8507 143.563 19.9212 143.59 20.9933C142.627 21.0041 141.615 21.0068 140.551 21.0087ZM140.754 15.6778C140.845 15.6788 140.932 15.6803 141.023 15.6803C141.592 15.6803 142.182 15.6655 142.771 15.6286C142.907 16.0319 143.046 16.45 143.19 16.8813C143.118 16.8727 143.05 16.8607 142.977 16.8527L142.797 16.833C142.08 16.7539 141.384 16.6822 140.689 16.6109C140.711 16.3002 140.731 15.9858 140.754 15.6778ZM140.807 15.0315C140.912 13.709 141.031 12.4176 141.167 11.1594C141.563 12.1355 142.027 13.4402 142.554 14.9884C142.012 15.0198 141.43 15.034 140.807 15.0315ZM144.21 19.9686C144.319 20.3008 144.431 20.6383 144.543 20.9792C144.444 20.981 144.341 20.9819 144.24 20.9838C144.232 20.6451 144.22 20.3073 144.21 19.9686ZM144.751 19.5432C144.539 18.9008 144.335 18.28 144.136 17.6786C144.136 17.6746 144.136 17.6706 144.135 17.6666C146.11 17.9961 147.802 18.5683 149.267 19.3512C149.562 19.744 149.848 20.143 150.134 20.5423C148.786 20.8001 147.128 20.9124 145.219 20.9625C145.059 20.478 144.903 20.0043 144.751 19.5432ZM144.107 17.0043C144.087 16.5047 144.062 16.0064 144.039 15.5077C144.664 15.425 145.268 15.3053 145.827 15.137C146.71 16.1257 147.555 17.1489 148.373 18.1948C147.108 17.662 145.698 17.2575 144.107 17.0043ZM144.009 14.8503C143.979 14.2683 143.946 13.6875 143.912 13.1067C144.394 13.5943 144.865 14.092 145.328 14.5968C144.93 14.6999 144.49 14.7839 144.009 14.8503ZM143.364 14.9263C143.317 14.9309 143.268 14.9349 143.221 14.9392C142.708 13.4306 142.254 12.1469 141.859 11.1496C142.323 11.5695 142.781 11.9965 143.228 12.4324C143.279 13.2617 143.322 14.0939 143.364 14.9263ZM142.149 10.5423C142.476 10.6294 142.797 10.7284 143.117 10.8312C143.132 11.0404 143.147 11.2493 143.161 11.4588C142.831 11.1465 142.488 10.8463 142.149 10.5423ZM140.159 15.0204C139.415 15.0001 138.699 14.9263 138.024 14.8066C138.982 13.3027 139.821 12.0349 140.528 11.0591C140.388 12.3466 140.266 13.6678 140.159 15.0204ZM140.107 15.6637C140.085 15.9538 140.065 16.2503 140.045 16.5429C139.04 16.4423 138.062 16.3512 137.101 16.2663C137.289 15.9676 137.471 15.6775 137.651 15.3933C138.421 15.544 139.242 15.6382 140.107 15.6637ZM139.999 17.1886C139.914 18.4397 139.837 19.7151 139.765 21.0105L139.625 21.0108H139.584C138.227 21.0108 136.408 20.8312 134.515 20.4285C135.295 19.1682 136.029 17.981 136.718 16.8791C137.782 16.9717 138.88 17.0763 139.999 17.1886ZM139.585 21.6559H139.626L139.728 21.6556C139.65 23.0962 139.576 24.5608 139.501 26.0476C139.481 26.4478 139.46 26.8496 139.44 27.2507C139.279 27.2412 139.106 27.2301 138.952 27.2218C137.434 27.1415 134.329 26.8991 130.927 26.1956C132.069 24.3787 133.148 22.6369 134.159 21.0031C136.186 21.4538 138.14 21.6559 139.585 21.6559ZM131.784 27.0166C131.332 27.0095 130.879 27.0022 130.422 26.9969C130.469 26.9225 130.516 26.8471 130.563 26.773C130.975 26.861 131.382 26.9422 131.784 27.0166ZM142.905 28.2619C143.173 28.2926 143.43 28.3333 143.689 28.3711C143.692 30.1987 143.68 32.0285 143.659 33.8582C142.193 33.7099 140.869 33.5801 139.749 33.4909C139.86 31.6621 139.957 29.8283 140.05 27.9989C141.017 28.0721 141.972 28.1551 142.905 28.2619ZM143.653 34.5061C143.629 36.3134 143.593 38.1207 143.551 39.9264C142.056 39.7077 140.633 39.5358 139.32 39.4232C139.469 37.6725 139.596 35.9079 139.708 34.1348C140.834 34.2246 142.17 34.3559 143.653 34.5061ZM143.537 40.5764C143.536 40.6278 143.535 40.6792 143.534 40.7303C143.347 40.7044 143.169 40.6669 142.979 40.6447C141.779 40.5054 140.529 40.4079 139.242 40.3368C139.25 40.2467 139.257 40.1559 139.265 40.0658C140.587 40.179 142.026 40.354 143.537 40.5764ZM142.904 41.2855C143.115 41.3098 143.311 41.3504 143.517 41.3797C143.478 42.9679 143.433 44.554 143.385 46.1377C141.541 45.6461 139.942 45.2631 138.745 45.0327C138.909 43.6958 139.056 42.3447 139.184 40.9797C140.467 41.0502 141.712 41.1471 142.904 41.2855ZM177.172 74.1821C176.921 73.6124 176.667 73.0482 176.42 72.4659C176.226 72.006 176.032 71.5208 175.839 71.0268C176.295 71.3541 176.74 71.6872 177.169 72.0284C177.224 72.7261 177.223 73.4447 177.172 74.1821ZM175.824 72.7166C176.219 73.6511 176.622 74.5685 177.031 75.4707C176.763 77.3039 176.196 79.2478 175.315 81.3021C174.809 82.4803 173.693 84.1652 172.285 85.4784C171.875 82.2723 171.508 78.4815 171.106 74.3261C170.997 73.1968 170.885 72.0413 170.77 70.8662C171.359 70.518 171.914 69.9452 172.43 69.1333C172.476 69.0601 172.518 68.9875 172.562 68.9146C173.372 69.381 174.151 69.8658 174.899 70.3685C175.204 71.1867 175.512 71.981 175.824 72.7166ZM170.842 104.458C170.463 102.215 169.972 100.07 169.378 98.0277C168.766 94.7032 168.182 91.3873 167.616 88.0809C167.801 88.1052 167.986 88.1268 168.17 88.1268C169.444 88.1268 170.686 87.5629 171.8 86.7332C171.989 88.0997 172.188 89.3496 172.405 90.4549C173.132 94.1544 173.921 97.877 174.819 101.573C173.635 102.929 172.327 104.078 170.93 104.999C170.9 104.819 170.872 104.637 170.842 104.458ZM121.562 62.8972C118.922 62.9365 116.269 62.9731 113.607 63.0076C115.708 62.9211 117.81 62.8415 119.911 62.768C120.466 62.8132 121.016 62.8562 121.562 62.8972ZM126.593 62.5634C128.39 62.5179 130.177 62.4831 131.956 62.4557C132.581 62.4772 133.182 62.4902 133.76 62.4951L133.769 62.727C133.35 62.732 132.924 62.7384 132.503 62.7436C130.631 62.7289 128.657 62.6674 126.593 62.5634ZM170.462 74.3882C170.883 78.7334 171.265 82.6806 171.699 85.986C170.439 87.0046 169 87.6699 167.576 87.4325C167.55 87.4282 167.528 87.4229 167.503 87.4183C167.192 85.5907 166.885 83.7656 166.585 81.9453C165.747 76.852 164.972 71.7029 164.227 66.5788C165.496 68.8596 167.098 70.8314 168.819 71.2006C169.015 71.2424 169.21 71.2636 169.401 71.2636C169.655 71.2636 169.903 71.2215 170.147 71.1471C170.255 72.2468 170.36 73.3294 170.462 74.3882ZM164.106 85.8187C163.993 85.6584 163.91 85.484 163.84 85.3037C163.791 84.5549 163.745 83.8062 163.705 83.058C163.762 82.607 163.842 82.1345 163.929 81.6389C163.951 81.5171 163.971 81.3932 163.993 81.2704C164.235 82.9181 164.428 84.6057 164.588 86.3201C164.397 86.166 164.235 85.9998 164.106 85.8187ZM164.282 78.9663C164.297 78.6805 164.302 78.3916 164.292 78.0988C164.159 74.2922 163.886 70.3445 163.339 66.4951C163.338 65.9762 163.336 65.4578 163.336 64.9407C164.158 70.637 165.013 76.377 165.947 82.0499C166.233 83.7896 166.526 85.5341 166.823 87.2808C166.217 87.1402 165.705 86.9649 165.28 86.7542C165.043 84.0824 164.727 81.4707 164.282 78.9663ZM153.842 59.537C155.855 59.884 157.867 60.3125 159.84 60.8268C158.244 60.6653 156.638 60.5291 155.024 60.4168C154.642 60.1125 154.252 59.816 153.842 59.537ZM162.182 63.4903C162.189 63.5275 162.196 63.5647 162.203 63.6019C161.89 63.5619 161.578 63.525 161.264 63.4884C160.917 63.3847 160.565 63.2854 160.212 63.1866C160.871 63.278 161.528 63.3789 162.182 63.4903ZM162.037 62.7138C161.205 62.6154 160.373 62.5262 159.54 62.4456C158.672 62.3354 157.801 62.2413 156.928 62.1601C156.587 61.8039 156.234 61.4572 155.864 61.1258C157.861 61.2753 159.845 61.4596 161.811 61.6891C161.888 62.0303 161.967 62.3693 162.037 62.7138ZM155.877 62.0684C155.765 62.0592 155.653 62.0512 155.54 62.0426C152.791 61.4599 149.908 61.0003 146.907 60.6724C149.52 60.7484 152.125 60.8638 154.711 61.0394C155.115 61.3689 155.505 61.7103 155.877 62.0684ZM150.45 61.778C148.114 61.71 145.8 61.706 143.54 61.7263C143.547 61.487 143.553 61.2477 143.56 61.0086C145.926 61.1868 148.224 61.4458 150.45 61.778ZM169.604 65.8064C169.636 66.1039 169.667 66.4007 169.698 66.6963C168.258 66.01 166.744 65.3732 165.16 64.7872C166.662 65.0721 168.145 65.4111 169.604 65.8064ZM163.828 63.8222C163.827 63.813 163.826 63.804 163.824 63.7948C164.013 63.8323 164.202 63.8705 164.39 63.9099C164.202 63.8816 164.016 63.8496 163.828 63.8222ZM143.59 59.9519C143.607 59.4148 143.623 58.8826 143.641 58.3468C146.356 58.5313 149.227 58.8183 152.132 59.2598C152.715 59.5929 153.264 59.9572 153.794 60.338C150.414 60.127 147.005 60.0085 143.59 59.9519ZM135.248 60.7096C135.318 60.7096 135.388 60.709 135.458 60.709C138.005 60.709 140.492 60.7976 142.914 60.9647C142.907 61.2191 142.9 61.4741 142.893 61.7288C140.146 61.7196 137.449 61.7433 134.829 61.7712C134.971 61.419 135.115 61.0692 135.248 60.7096ZM156.026 62.8006C156.271 62.8544 156.512 62.9113 156.755 62.9673C156.778 62.9922 156.803 63.0159 156.825 63.0411C152.345 62.675 147.846 62.6058 143.514 62.6292C143.517 62.5449 143.519 62.4609 143.522 62.3767C147.619 62.3994 151.819 62.5056 156.026 62.8006ZM168.955 70.5696C167.196 70.1922 165.455 67.7358 164.165 65.1034C166.146 65.8045 168.018 66.5853 169.775 67.4402C169.88 68.4673 169.983 69.4831 170.082 70.4835C169.715 70.6226 169.339 70.653 168.955 70.5696ZM170.461 67.7841C170.983 68.0487 171.493 68.3203 171.993 68.5984C171.954 68.6621 171.925 68.7242 171.884 68.7882C171.505 69.3847 171.107 69.8273 170.697 70.1325C170.62 69.3576 170.542 68.575 170.461 67.7841ZM170.383 67.0243C170.347 66.6813 170.311 66.3364 170.274 65.991C171.159 66.2429 172.033 66.5182 172.896 66.8172C172.74 67.2196 172.538 67.6297 172.312 68.0431C171.684 67.694 171.044 67.3525 170.383 67.0243ZM161.566 60.6407C158.584 59.7778 155.489 59.1297 152.422 58.6556C152.169 58.5129 151.906 58.3778 151.643 58.244C154.837 58.4397 158.013 58.7094 161.153 59.0777C161.298 59.5939 161.437 60.1138 161.566 60.6407ZM150.359 58.3609C149.405 58.2351 148.461 58.1299 147.525 58.0336C148.286 58.0656 149.047 58.1016 149.806 58.1413C149.988 58.2166 150.182 58.2815 150.359 58.3609ZM143.676 57.2553C143.684 57.0117 143.692 56.7689 143.7 56.5256C145.128 56.728 146.458 57.0193 147.697 57.3937C146.359 57.3365 145.018 57.291 143.676 57.2553ZM142.994 58.3034C142.977 58.85 142.96 59.3933 142.943 59.9415C140.471 59.9055 137.997 59.8996 135.529 59.9098C135.741 59.3038 135.943 58.6891 136.134 58.0637C138.214 58.0813 140.528 58.149 142.994 58.3034ZM134.554 60.7075C134.487 60.885 134.426 61.0683 134.357 61.2437L134.335 60.7059C134.411 60.7069 134.481 60.7069 134.554 60.7075ZM136.24 62.6963L134.443 62.7187C134.475 62.6461 134.502 62.5705 134.534 62.4975C134.584 62.4972 134.636 62.4975 134.686 62.4969C136.08 62.4849 137.52 62.4606 138.993 62.4357C140.262 62.4139 141.558 62.3923 142.874 62.3776C142.871 62.4628 142.869 62.548 142.867 62.6332C142.615 62.6351 142.364 62.6369 142.113 62.6394C140.117 62.6486 138.153 62.6723 136.24 62.6963ZM159.246 63.9206C159.937 63.9957 160.627 64.0797 161.315 64.172C161.67 64.279 162.022 64.3901 162.371 64.502C162.489 65.181 162.593 65.8654 162.692 66.5533C162.696 68.5366 162.706 70.5287 162.731 72.5286C161.696 69.2702 160.294 66.3263 158.373 63.8373C158.664 63.8634 158.955 63.892 159.246 63.9206ZM163.388 73.1912C163.439 73.9157 163.485 74.6389 163.523 75.3591C163.488 75.2157 163.454 75.0711 163.417 74.9284C163.406 74.3485 163.397 73.7699 163.388 73.1912ZM163.629 79.0478C163.613 79.313 163.589 79.5769 163.557 79.8387C163.539 79.3499 163.522 78.8614 163.506 78.3732C163.549 78.5965 163.589 78.8223 163.629 79.0478ZM164.663 87.1525C164.664 87.1584 164.664 87.1642 164.665 87.1704C164.659 87.1621 164.655 87.1534 164.65 87.1451C164.654 87.1479 164.659 87.1501 164.663 87.1525ZM165.343 87.4875C165.803 87.6795 166.334 87.8391 166.94 87.9659C167.276 89.9338 167.618 91.9047 167.97 93.8797C167.222 91.9592 166.37 90.1506 165.422 88.4612C165.397 88.1354 165.37 87.8115 165.343 87.4875ZM173.04 90.3306C172.805 89.1349 172.591 87.7699 172.388 86.2632C174.029 84.8499 175.323 82.9248 175.91 81.5556C176.666 79.7938 177.195 78.1089 177.512 76.4994C178.807 79.285 180.167 81.9118 181.594 84.3817C181.382 87.1999 180.691 90.2275 179.515 93.4585C178.471 96.3238 177.041 98.8518 175.336 100.954C174.486 97.4211 173.735 93.8652 173.04 90.3306ZM172.883 68.3606C173.128 67.9136 173.338 67.4715 173.506 67.0356C173.589 67.0658 173.672 67.0978 173.755 67.1282C174.011 67.8961 174.268 68.6433 174.526 69.3625C173.992 69.0208 173.447 68.6848 172.883 68.3606ZM170.148 64.8084C170.145 64.7863 170.143 64.7638 170.141 64.7414C170.241 64.7961 170.342 64.8512 170.442 64.9069C170.344 64.8727 170.246 64.842 170.148 64.8084ZM169.473 64.5826C169.36 64.546 169.248 64.5073 169.136 64.4716C169.247 64.4934 169.357 64.5177 169.468 64.5399C169.469 64.5543 169.471 64.5682 169.473 64.5826ZM163.699 62.9245C163.651 62.5932 163.602 62.2594 163.555 61.9287C163.73 61.9872 163.905 62.046 164.078 62.1066C164.465 62.4766 164.856 62.8233 165.25 63.1433C164.734 63.0657 164.217 62.9941 163.699 62.9245ZM162.523 60.9259C162.456 60.6949 162.397 60.4749 162.344 60.2642C162.457 60.3974 162.57 60.5352 162.684 60.6641C162.685 60.7687 162.684 60.873 162.684 60.9773C162.63 60.9607 162.577 60.9425 162.523 60.9259ZM160.861 58.3972C157.282 57.9865 153.66 57.698 150.016 57.5042C148.155 56.7465 146.066 56.1928 143.721 55.8673C143.732 55.5369 143.742 55.2047 143.753 54.8749C149.303 55.2324 154.995 55.9645 160.09 57.3116C160.346 57.6817 160.602 58.0462 160.861 58.3972ZM143.774 54.2307C143.782 54.0018 143.789 53.769 143.797 53.5404C143.826 52.6572 143.855 51.7716 143.884 50.8856C147.952 51.3237 152.88 52.061 157.541 53.2208C158.198 54.3768 158.869 55.4812 159.556 56.5213C154.584 55.2705 149.113 54.5759 143.774 54.2307ZM143.905 50.2454C143.941 49.1232 143.977 47.9991 144.012 46.8735C147.669 47.8638 152.069 49.249 156.154 50.669C156.473 51.2831 156.794 51.8891 157.12 52.48C152.574 51.3793 147.835 50.6721 143.905 50.2454ZM144.028 46.3109C144.077 44.7026 144.122 43.0919 144.162 41.4787C148.212 42.1706 151.423 43.825 153.966 46.1694C154.55 47.4463 155.15 48.6928 155.764 49.9043C151.744 48.5464 147.509 47.2565 144.028 46.3109ZM143.369 46.7013C143.333 47.8616 143.297 49.0205 143.259 50.1768C141.233 49.9679 139.451 49.8357 138.056 49.7637C138.287 48.4077 138.494 47.031 138.673 45.632C139.928 45.8455 141.543 46.2189 143.369 46.7013ZM143.238 50.8176C143.209 51.7193 143.179 52.6203 143.149 53.5189C143.142 53.7413 143.135 53.9677 143.128 54.1901C141.12 54.0708 139.145 53.9972 137.223 53.9622C137.488 52.7969 137.732 51.6125 137.947 50.4036C139.354 50.4737 141.17 50.6063 143.238 50.8176ZM143.107 54.834C143.097 55.1478 143.087 55.4643 143.076 55.779C143.043 55.775 143.012 55.7695 142.979 55.7655C141.072 55.5455 139.031 55.4092 136.899 55.3151C136.958 55.0776 137.022 54.8444 137.08 54.6045C139.04 54.6386 141.057 54.7122 143.107 54.834ZM142.904 56.4063C142.956 56.4121 143.003 56.4226 143.055 56.429C143.046 56.6988 143.038 56.9683 143.029 57.2387C140.823 57.1849 138.616 57.1566 136.41 57.1479C136.523 56.7542 136.628 56.354 136.733 55.9537C138.902 56.0473 140.975 56.1835 142.904 56.4063ZM135.739 57.1458C135.433 57.1452 135.127 57.143 134.821 57.143C134.507 57.143 134.192 57.1433 133.88 57.1439C132.652 57.1467 131.423 57.1646 130.193 57.191C124.995 56.836 118.056 56.0596 110.775 54.9183C116.699 55.5483 122.727 55.6483 128.421 55.743C131.063 55.7867 133.63 55.8298 136.075 55.9242C135.966 56.3343 135.855 56.7431 135.739 57.1458ZM135.437 58.057H135.461C135.266 58.6858 135.061 59.3047 134.845 59.9132C134.664 59.9141 134.484 59.9147 134.304 59.916L134.228 58.0342C134.666 58.0477 135.072 58.0554 135.437 58.057ZM133.687 60.6912L133.731 61.7842C133.14 61.7906 132.544 61.8017 131.95 61.8109C128.835 61.7029 125.158 61.3926 121.129 60.9367C124.652 60.7684 128.174 60.6546 131.687 60.6013C132.403 60.6432 133.071 60.6733 133.687 60.6912ZM124.807 61.9672C123.201 62.0127 121.592 62.0641 119.98 62.1201C117.595 61.9251 115.135 61.6906 112.63 61.4261C114.201 61.3209 115.773 61.2191 117.346 61.1292C119.961 61.4627 122.462 61.7457 124.807 61.9672ZM96.3812 63.7699C98.7438 63.7739 101.105 63.7671 103.463 63.7533C102.913 65.4194 102.361 67.0876 101.807 68.7587C97.0454 67.6973 92.4417 66.2204 88.1775 64.1147C90.9229 64.0077 93.6584 63.8902 96.3812 63.7699ZM104.147 63.7474C110.429 63.7065 116.688 63.6158 122.871 63.5232C126.094 63.4752 129.282 63.429 132.44 63.3897C132.899 63.393 133.35 63.3934 133.796 63.3909L133.826 64.1387L134.154 63.3894C134.236 63.3887 134.32 63.3894 134.402 63.3884C135.488 63.3761 136.598 63.3592 137.728 63.342C139.156 63.3201 140.616 63.2983 142.098 63.2841C142.348 63.2829 142.598 63.282 142.848 63.2814C142.761 66.4339 142.692 69.5809 142.654 72.704C138.604 72.261 134.157 72.0223 129.453 71.7715C120.71 71.3055 111.318 70.8028 102.443 68.8986C103.012 67.179 103.58 65.4621 104.147 63.7474ZM143.496 63.2798C148.045 63.2771 152.749 63.3755 157.436 63.7576C159.984 66.8554 161.653 70.7364 162.773 75.0899C162.826 77.7327 162.914 80.386 163.057 83.0448C162.986 83.6357 162.963 84.203 163.035 84.7334C158.109 77.9874 151.332 73.7776 143.301 72.7818C143.339 69.6335 143.408 66.4598 143.496 63.2798ZM164.785 88.6497C165.031 91.8878 165.181 95.1969 165.326 98.4916C164.705 94.7675 164.278 91.032 163.985 87.2993C164.259 87.7395 164.525 88.1911 164.785 88.6497ZM170.271 106.16C170.474 107.193 170.683 108.227 170.893 109.261C171.039 110.462 171.156 111.672 171.234 112.882C170.286 110.843 169.249 108.939 168.122 107.176C168.855 106.894 169.573 106.555 170.271 106.16ZM175.524 101.738C177.415 99.5089 178.992 96.7846 180.123 93.6785C181.194 90.7382 181.865 87.9616 182.153 85.3492C183.699 87.948 185.329 90.3592 187.038 92.6043C186.993 96.3964 186.257 100.475 184.803 104.832C183.419 108.982 181.738 112.653 179.743 115.881C178.069 111.291 176.7 106.539 175.524 101.738ZM181.653 83.1857C180.271 80.7345 178.955 78.1329 177.7 75.3763C177.83 74.4171 177.879 73.4878 177.847 72.588C178.623 73.2405 179.356 73.9145 180.036 74.6137C181.198 77.1854 181.738 80.047 181.653 83.1857ZM177.789 71.7051C177.758 71.3913 177.717 71.0815 177.665 70.7755C177.925 71.0985 178.184 71.4218 178.421 71.7608C178.671 72.1173 178.906 72.4809 179.127 72.8513C178.695 72.4615 178.251 72.0789 177.789 71.7051ZM177.07 71.1428C176.543 70.7392 176.001 70.3432 175.437 69.9596C175.173 69.2487 174.911 68.5122 174.649 67.7472C175.411 68.3763 176.123 69.0457 176.781 69.7569C176.901 70.2097 177.001 70.6702 177.07 71.1428ZM176.322 68.3723C176.258 68.3111 176.192 68.252 176.127 68.1914C176.18 68.2212 176.232 68.2505 176.284 68.2806C176.297 68.3114 176.31 68.3415 176.322 68.3723ZM173.064 65.7645C173.026 65.7387 172.989 65.7119 172.951 65.6861C173.049 65.671 173.148 65.6532 173.246 65.6341C173.233 65.6929 173.229 65.7501 173.214 65.8091C173.164 65.7947 173.114 65.7787 173.064 65.7645ZM172.097 65.1367C172.078 65.1244 172.058 65.113 172.038 65.1007C172.081 65.1108 172.123 65.1204 172.166 65.1305C172.143 65.132 172.12 65.1351 172.097 65.1367ZM166.626 63.3598C166.341 63.1629 166.057 62.9578 165.776 62.7317C166.446 62.9931 167.107 63.2657 167.753 63.5561C167.377 63.4893 167.002 63.422 166.626 63.3598ZM162.363 59.2287C162.415 59.2355 162.468 59.2419 162.521 59.2487C162.53 59.3192 162.54 59.389 162.55 59.4594C162.488 59.3831 162.425 59.3065 162.363 59.2287ZM162.036 58.5341L161.936 57.8253C162.069 57.8662 162.204 57.9062 162.336 57.9478C162.366 58.16 162.397 58.3726 162.427 58.5849C162.296 58.5686 162.166 58.5504 162.036 58.5341ZM158.467 53.458C158.717 53.5235 158.966 53.5902 159.213 53.6585C159.627 54.5642 160.001 55.5034 160.342 56.4687C159.705 55.5181 159.08 54.5131 158.467 53.458ZM158.042 52.7089C157.728 52.1518 157.417 51.5833 157.11 51.0037C157.414 51.1111 157.716 51.2185 158.015 51.3258C158.313 51.8439 158.592 52.3782 158.859 52.9236C158.588 52.8507 158.316 52.779 158.042 52.7089ZM156.695 50.2211C156.266 49.3902 155.844 48.5363 155.429 47.6703C156.195 48.5473 156.888 49.4973 157.519 50.5057C157.246 50.4106 156.971 50.3159 156.695 50.2211ZM144.179 40.8296C144.18 40.7782 144.182 40.7272 144.183 40.6758C146.78 41.0745 149.538 41.5907 152.201 42.134C152.571 43.0171 152.949 43.8914 153.332 44.7574C150.874 42.8129 147.862 41.4418 144.179 40.8296ZM144.197 40.0255C144.239 38.2087 144.273 36.3903 144.297 34.5716C144.399 34.5817 144.497 34.5919 144.6 34.6021C146.28 34.7731 147.887 34.9306 149.418 35.0684C150.207 37.1873 151.038 39.3164 151.904 41.4144C149.337 40.8955 146.692 40.4066 144.197 40.0255ZM144.666 33.9606C144.544 33.948 144.427 33.9363 144.307 33.924C144.329 32.106 144.337 30.2885 144.334 28.4726C145.402 28.6596 146.397 28.9097 147.321 29.2223C147.91 30.9207 148.529 32.6548 149.173 34.4021C147.569 34.2557 146.021 34.0985 144.666 33.9606ZM146.533 28.2979C146.691 28.3031 146.848 28.308 147.005 28.3123C147.022 28.36 147.039 28.4086 147.055 28.4563C146.881 28.4034 146.712 28.3471 146.533 28.2979ZM144.334 27.5543C144.326 25.5754 144.299 23.5995 144.254 21.6282C144.421 21.6255 144.591 21.6233 144.755 21.6199C145.385 23.5278 146.06 25.5557 146.78 27.6568C145.95 27.6328 145.129 27.5968 144.334 27.5543ZM145.43 21.6015C147.418 21.5436 149.145 21.4147 150.553 21.1182C151.945 23.0999 153.249 25.1564 154.49 27.2609C152.454 27.6448 149.953 27.7232 147.474 27.6737C146.737 25.5336 146.056 23.4915 145.43 21.6015ZM150.822 20.3867C150.788 20.3396 150.754 20.2935 150.72 20.2464C150.779 20.2879 150.841 20.3264 150.899 20.3685C150.874 20.375 150.847 20.3805 150.822 20.3867ZM149.675 18.8119C148.663 17.4682 147.606 16.1627 146.494 14.9057C147.322 14.5673 147.996 14.084 148.414 13.4097C150.397 14.7417 152.208 16.4044 153.87 18.3271C153.494 19.1571 152.751 19.7323 151.682 20.1255C151.062 19.6416 150.397 19.2008 149.675 18.8119ZM146.017 14.3895C145.318 13.6198 144.596 12.8717 143.853 12.1414C143.83 11.7781 143.812 11.4129 143.788 11.0499C145.224 11.567 146.581 12.2432 147.868 13.0553C147.517 13.6217 146.906 14.0674 146.017 14.3895ZM137.344 14.6697C136.484 14.4679 135.717 14.1825 135.068 13.8339C136.619 12.8551 138.191 11.9054 139.783 10.9869C139.082 11.9759 138.264 13.2218 137.344 14.6697ZM136.976 15.2505C136.781 15.5597 136.58 15.8799 136.376 16.2054C134.84 16.0744 133.354 15.9615 131.928 15.8695C132.759 15.317 133.594 14.7694 134.437 14.232C135.146 14.6627 136.007 15.006 136.976 15.2505ZM133.493 20.8496C132.479 22.489 131.398 24.2323 130.254 26.0516C127.389 25.413 124.378 24.4381 121.965 22.9556C123.925 21.4806 125.91 20.0286 127.925 18.6101C129.544 19.6293 131.528 20.3611 133.493 20.8496ZM129.892 26.625C129.815 26.7459 129.739 26.8677 129.662 26.9889C128.619 26.9788 127.568 26.9702 126.503 26.9628C123.35 26.9412 120.154 26.9148 116.949 26.8083C118.426 25.6544 119.914 24.5073 121.416 23.3716C123.876 24.9297 126.955 25.9525 129.892 26.625ZM130.016 27.638C133.273 27.6731 136.414 27.7448 139.405 27.95C139.311 29.78 139.213 31.6138 139.102 33.4429C138.81 33.4226 138.53 33.4048 138.275 33.3925C135.903 33.2783 131.673 32.9538 127.183 32.0466C128.159 30.5522 129.105 29.0774 130.016 27.638ZM138.243 34.0369C138.495 34.0492 138.772 34.0668 139.062 34.0868C138.951 35.859 138.825 37.6232 138.676 39.3718C138.317 39.3459 137.96 39.3213 137.623 39.3063C134.325 39.1608 128.953 38.7673 123.38 37.7158C124.555 36.0144 125.7 34.3083 126.807 32.62C131.433 33.5798 135.801 33.9194 138.243 34.0369ZM137.594 39.9507C137.923 39.9655 138.272 39.9898 138.623 40.015C138.614 40.1122 138.604 40.2085 138.596 40.3057C135.316 40.1495 131.791 40.1608 128.123 40.1759C126.017 40.1855 123.853 40.1928 121.661 40.1685C122.106 39.5444 122.547 38.9187 122.984 38.2905C128.699 39.3933 134.221 39.8015 137.594 39.9507ZM128.126 40.821C131.777 40.8056 135.28 40.7946 138.534 40.9484C138.408 42.2847 138.268 43.6103 138.108 44.9186C137.658 44.8448 137.28 44.798 137.006 44.7885C133.717 44.6749 126.847 44.2904 119.591 43.0153C120.133 42.2856 120.67 41.5489 121.202 40.8081C123.552 40.8392 125.873 40.8315 128.126 40.821ZM136.983 45.4329C137.278 45.4434 137.629 45.4772 138.028 45.532C137.846 46.9545 137.639 48.3563 137.404 49.7329C137.046 49.7182 136.719 49.7074 136.431 49.7012C131.223 49.5917 123.63 49.0097 115.971 47.6909C117.038 46.3737 118.094 45.0152 119.134 43.6278C126.085 44.8651 132.853 45.2908 136.983 45.4329ZM136.417 50.3463C136.678 50.3519 136.971 50.3608 137.29 50.3737C137.073 51.5879 136.832 52.7809 136.563 53.9492C136.346 53.9462 136.122 53.9385 135.907 53.9363C131.779 53.8948 122.504 53.1999 112.657 51.5879C113.615 50.5189 114.567 49.4084 115.511 48.2579C123.333 49.6323 131.107 50.235 136.417 50.3463ZM135.901 54.5814C136.068 54.5833 136.242 54.5894 136.41 54.5916C136.355 54.8223 136.303 55.0573 136.245 55.2859C133.75 55.1871 131.13 55.1425 128.432 55.0976C122.552 55.0001 116.314 54.8893 110.212 54.1993C110.862 53.5383 111.509 52.851 112.155 52.1432C122.2 53.8185 131.7 54.539 135.901 54.5814ZM130.45 57.829C131.61 57.9124 132.659 57.9733 133.578 58.0108L133.656 59.9221C132.935 59.9279 132.213 59.9479 131.492 59.9593C127.653 59.7483 122.707 59.2299 117.237 58.4944C121.652 58.1533 126.061 57.9179 130.45 57.829ZM125.765 60.1033C122.965 60.1999 120.163 60.3229 117.363 60.4823C114.593 60.1288 111.7 59.72 108.741 59.2721C110.707 59.0672 112.673 58.8771 114.64 58.7076C118.668 59.2847 122.453 59.7606 125.765 60.1033ZM105.645 61.2852C105.41 61.3033 105.176 61.324 104.941 61.3427L104.986 61.2046C105.206 61.2317 105.426 61.2584 105.645 61.2852ZM104.24 61.4002C103.059 61.4953 101.878 61.591 100.7 61.6903C101.19 61.4335 101.682 61.1551 102.176 60.8517C102.895 60.9437 103.614 61.0342 104.332 61.1234L104.24 61.4002ZM104.02 62.0653C103.94 62.3071 103.86 62.5495 103.781 62.7913C103.258 62.815 102.732 62.8387 102.211 62.8624C100.572 62.9368 98.9263 63.0116 97.2754 63.0854C97.8526 62.9233 98.433 62.7209 99.017 62.4816C100.681 62.3385 102.349 62.2007 104.02 62.0653ZM93.9432 62.9255C94.5392 62.8722 95.1364 62.8202 95.7339 62.7676C95.1275 62.8676 94.5287 62.9273 93.9432 62.9255ZM102.238 69.5157C111.178 71.4415 120.625 71.9469 129.419 72.4157C134.139 72.667 138.6 72.9064 142.65 73.3524C142.635 74.7097 142.618 76.0703 142.618 77.4112V91.1692C139.643 90.8526 136.579 90.5767 133.34 90.2863C121.608 89.2348 108.938 88.0954 97.15 84.666C98.8787 79.608 100.568 74.5531 102.238 69.5157ZM143.265 77.4112C143.265 76.0971 143.282 74.7629 143.296 73.4324C151.511 74.4734 158.386 78.9697 163.247 86.1629C163.581 90.8557 164.114 95.559 164.969 100.244C165.156 101.266 165.348 102.279 165.546 103.287C165.551 103.389 165.557 103.49 165.562 103.592C159.86 96.4822 152.357 92.2948 143.265 91.2436V77.4112ZM166.844 106.422C166.939 106.561 167.032 106.703 167.126 106.844C167.066 106.863 167.006 106.881 166.946 106.9C166.912 106.741 166.877 106.582 166.844 106.422ZM167.492 107.406C168.91 109.605 170.187 112.027 171.32 114.667C171.393 117.228 171.249 119.758 170.767 122.155C169.402 117.479 168.173 112.607 167.081 107.536C167.219 107.494 167.356 107.452 167.492 107.406ZM171.979 116.27C172.306 117.099 172.621 117.943 172.921 118.812C173.247 120.274 173.579 121.737 173.919 123.2C173.201 123.9 172.456 124.567 171.685 125.201C171.501 124.611 171.319 124.022 171.14 123.426C171.715 121.143 171.958 118.729 171.979 116.27ZM178.533 138.757C178.295 137.893 178.06 137.028 177.828 136.164C177.491 133.341 176.744 130.367 176.098 127.802C175.914 127.069 175.74 126.378 175.591 125.747C175.379 124.852 175.152 123.979 174.917 123.116C176.624 121.379 178.179 119.448 179.588 117.316C181.284 121.792 183.284 126.106 185.693 130.154C183.893 133.474 181.736 136.766 179.152 140.153C178.948 139.682 178.741 139.217 178.533 138.757ZM187.688 92.3803C187.714 86.5874 186.134 81.4501 182.926 77.0341C182.226 76.0709 181.442 75.1444 180.583 74.2532C180.126 73.2592 179.59 72.3016 178.952 71.3913C178.473 70.7084 177.936 70.0695 177.372 69.4505C177.313 69.2373 177.246 69.0272 177.176 68.8183C179.003 69.9593 180.723 71.2904 182.299 72.859C188.966 79.4942 192.129 88.93 192.827 98.2873C191.034 96.4757 189.322 94.51 187.688 92.3803ZM170.133 64.0154C170.108 64.0018 170.083 63.9883 170.057 63.9751C170.019 63.6268 169.98 63.2777 169.941 62.9273C170.826 63.0971 171.708 63.2758 172.582 63.4696C172.706 63.8689 172.829 64.2584 172.952 64.6494C172.019 64.4193 171.078 64.2113 170.133 64.0154ZM169.365 63.6093C168.433 63.1463 167.464 62.724 166.476 62.3256C167.415 62.4726 168.347 62.6335 169.275 62.8049C169.306 63.0737 169.336 63.3414 169.365 63.6093ZM160.041 53.8929C160.281 53.9628 160.52 54.0332 160.757 54.1055C160.883 54.9746 161.006 55.8562 161.13 56.7428C160.801 55.7664 160.441 54.8134 160.041 53.8929ZM160.66 53.4349C160.342 53.3392 160.022 53.2466 159.699 53.1553C159.463 52.648 159.215 52.1515 158.955 51.6654C159.475 51.8555 159.983 52.0441 160.481 52.2315C160.541 52.6301 160.601 53.0313 160.66 53.4349ZM158.512 50.8554C157.414 48.9648 156.106 47.2661 154.556 45.8107C154.028 44.6577 153.512 43.4854 153.009 42.2995C155.052 42.7234 157.009 43.1528 158.768 43.5484C159.432 46.0316 159.931 48.7162 160.371 51.5301C159.766 51.3058 159.145 51.0806 158.512 50.8554ZM152.702 41.5781C151.809 39.4444 150.961 37.2802 150.154 35.1352C152.064 35.3013 153.82 35.4259 155.398 35.4939C156.783 37.6072 157.791 40.0919 158.574 42.8437C156.772 42.44 154.776 42.0041 152.702 41.5781ZM149.903 34.4676C149.279 32.7923 148.683 31.1357 148.116 29.5179C151.062 30.6798 153.262 32.5013 154.941 34.8275C153.321 34.7472 151.592 34.6162 149.903 34.4676ZM147.833 28.7086C147.788 28.5809 147.745 28.4551 147.701 28.328C148.066 28.3342 148.429 28.3385 148.792 28.3385C150.955 28.3385 153.059 28.2133 154.831 27.8494C156.173 30.1562 157.441 32.517 158.666 34.9001C157.794 34.9195 156.824 34.9054 155.792 34.8654C153.919 32.0964 151.383 29.9652 147.833 28.7086ZM156.934 27.2249C157.203 27.1123 157.457 26.9898 157.692 26.8554C157.917 28.2034 158.15 29.5459 158.366 30.8979C157.928 29.6071 157.457 28.3794 156.934 27.2249ZM156.665 26.6444C155.519 24.2587 154.115 22.2137 152.265 20.6054C153.218 20.2052 153.916 19.6456 154.338 18.8762C155.251 19.9766 156.119 21.157 156.945 22.4025C156.962 22.4997 156.98 22.5985 156.996 22.6923C157.199 23.8481 157.383 25.0149 157.578 26.1759C157.307 26.3503 157.001 26.5056 156.665 26.6444ZM157.836 23.7955C158.106 24.2332 158.372 24.678 158.633 25.129C158.506 25.3431 158.348 25.5406 158.158 25.7224C158.05 25.0804 157.947 24.4359 157.836 23.7955ZM156.665 20.8404C156.01 19.9175 155.329 19.0371 154.621 18.2004C154.703 17.9272 154.766 17.639 154.793 17.3202C154.793 17.3147 154.793 17.3092 154.794 17.3036C155.379 18.1139 155.94 18.9605 156.475 19.8351C156.542 20.1802 156.606 20.5153 156.665 20.8404ZM154.179 16.4767C154.178 16.7422 154.17 17.0065 154.148 17.2673C154.138 17.3845 154.109 17.4879 154.09 17.598C152.443 15.7387 150.655 14.1234 148.699 12.8215C148.76 12.6453 148.807 12.4604 148.837 12.2623C148.856 12.1294 148.863 11.9919 148.867 11.8537C149.661 12.2217 150.423 12.6496 151.155 13.1322C152.226 14.1191 153.233 15.2469 154.179 16.4767ZM148.026 10.7918C146.667 10.2738 145.223 9.91508 143.687 9.73697C143.681 9.65791 143.675 9.57885 143.669 9.49979C143.946 9.44165 144.221 9.39181 144.492 9.34905C145.728 9.64868 146.906 10.1403 148.026 10.7918ZM146.164 9.18324C146.594 9.16663 147.014 9.17248 147.426 9.19893C147.568 9.43365 147.691 9.67145 147.797 9.91047C147.265 9.63361 146.721 9.38997 146.164 9.18324ZM142.733 9.05558C142.522 9.10972 142.309 9.1694 142.095 9.23185C142.167 9.15956 142.24 9.08573 142.312 9.01528C142.453 9.02881 142.596 9.04174 142.733 9.05558ZM141.417 8.9959C141.419 8.97652 141.422 8.95683 141.424 8.93745C141.44 8.93868 141.456 8.94022 141.472 8.94145C141.453 8.95991 141.435 8.97713 141.417 8.9959ZM140.761 9.01067C140.731 8.96637 140.701 8.92238 140.671 8.87869C140.705 8.88116 140.741 8.88331 140.776 8.88577C140.771 8.92699 140.766 8.96944 140.761 9.01067ZM140.081 9.16632C139.778 9.03251 139.477 8.90669 139.176 8.78333C139.398 8.79564 139.621 8.80763 139.836 8.82117C139.918 8.93437 140 9.04881 140.081 9.16632ZM138.797 10.8081C137.331 11.6649 135.884 12.5487 134.454 13.4559C134.163 13.2513 133.897 13.0366 133.687 12.8003C133.554 12.6514 133.441 12.4982 133.346 12.3413C135.134 11.7833 136.954 11.2776 138.797 10.8081ZM133.202 13.2282C133.393 13.4429 133.621 13.642 133.866 13.8324C132.857 14.4787 131.857 15.1373 130.865 15.8049C129.05 15.6975 127.317 15.6178 125.679 15.5705C125.594 15.4287 125.515 15.2853 125.446 15.1395C127.831 14.2003 130.256 13.3316 132.729 12.5434C132.858 12.7803 133.009 13.011 133.202 13.2282ZM124.932 15.5529C124.766 15.5489 124.601 15.5456 124.437 15.5422C124.572 15.4877 124.707 15.4342 124.843 15.3801C124.87 15.4382 124.902 15.4954 124.932 15.5529ZM118.695 21.1065C119.312 21.8045 120.039 22.4305 120.846 22.9929C119.324 24.1455 117.816 25.3093 116.32 26.4798C117.064 24.6205 117.837 22.7935 118.635 21.0324C118.656 21.0567 118.673 21.0825 118.695 21.1065ZM114.997 27.5193C114.922 27.4691 114.842 27.4218 114.769 27.3707C114.901 27.3768 115.034 27.3802 115.166 27.3858C115.11 27.4304 115.054 27.475 114.997 27.5193ZM115.497 28.5827C118.588 30.4276 122.413 31.6575 126.131 32.4748C125.018 34.1677 123.869 35.8784 122.69 37.5814C119.446 36.9385 116.162 36.0685 113.201 34.8884C113.925 32.7997 114.692 30.6807 115.497 28.5827ZM112.581 34.6316C111.387 34.1301 110.251 33.5767 109.2 32.9636C111.054 31.4766 112.921 29.9834 114.804 28.4944C114.026 30.5331 113.284 32.5936 112.581 34.6316ZM122.292 38.1545C121.824 38.8251 121.352 39.4927 120.876 40.1581C117.802 40.1122 114.681 39.9898 111.585 39.7025C112.033 38.3256 112.502 36.9166 112.993 35.4899C115.906 36.6475 119.115 37.5113 122.292 38.1545ZM118.426 43.5001C117.381 44.8894 116.322 46.2524 115.252 47.5672C113.318 47.2227 111.388 46.8277 109.493 46.3838C109.937 44.9152 110.417 43.3577 110.931 41.7393C113.365 42.453 115.902 43.031 118.426 43.5001ZM114.787 48.1283C113.835 49.2826 112.875 50.3971 111.911 51.4642C110.672 51.2563 109.426 51.033 108.182 50.7955C108.524 49.6265 108.901 48.3505 109.31 46.9907C111.114 47.4153 112.949 47.7943 114.787 48.1283ZM108.369 55.1259C107.732 55.7362 107.094 56.3223 106.457 56.8751C106.439 56.872 106.422 56.8695 106.405 56.8665C106.573 56.3127 106.769 55.6495 106.99 54.8952C107.45 54.9733 107.91 55.0502 108.369 55.1259ZM106.715 57.4909C108.472 57.778 110.211 58.0511 111.918 58.3077C110.03 58.4867 108.144 58.6814 106.259 58.8897C106.098 58.8645 105.937 58.839 105.776 58.8137L106.022 58.0699C106.253 57.8789 106.484 57.6897 106.715 57.4909ZM104.802 59.7009L104.54 60.494C104.037 60.4318 103.534 60.3691 103.03 60.3054C103.267 60.1482 103.503 59.9907 103.74 59.8234C104.094 59.7821 104.448 59.7412 104.802 59.7009ZM102.051 60.1808C101.839 60.1537 101.628 60.127 101.416 60.0996C101.735 60.0608 102.053 60.0242 102.372 59.9861C102.265 60.0553 102.158 60.1138 102.051 60.1808ZM101.161 60.7213C100.392 61.1603 99.6285 61.5316 98.8699 61.8466C96.3131 62.0669 93.7686 62.2927 91.2356 62.5206C90.5622 62.3204 89.9062 62.0456 89.2701 61.694C92.4522 61.2529 95.6488 60.8231 98.8546 60.4183C99.6237 60.5204 100.393 60.622 101.161 60.7213ZM88.4085 61.1618C88.3211 61.1022 88.2309 61.052 88.1442 60.9896L87.9758 61.2215C86.6514 61.4064 85.3304 61.5925 84.0119 61.7789C83.6233 61.5319 83.2376 61.28 82.8564 61.0197C81.9246 60.3829 80.4106 59.0958 78.6554 57.5275C84.297 58.3671 90.3161 59.2573 96.3818 60.0848C93.7157 60.4321 91.0566 60.7933 88.4085 61.1618ZM88.2483 61.8352C88.7341 62.1518 89.2307 62.4253 89.7384 62.6551C89.493 62.6772 89.2452 62.6994 89.0002 62.7212C88.0215 62.8098 87.027 62.8975 86.0419 62.9861C85.6499 62.7661 85.2612 62.5403 84.876 62.3084C85.9979 62.1499 87.1224 61.9921 88.2483 61.8352ZM84.7684 62.9984C83.4058 62.9716 82.0456 62.9381 80.6857 62.9005C80.9706 62.8602 81.2607 62.8199 81.5449 62.7796C82.3177 62.6701 83.0928 62.5603 83.8678 62.4508C84.1656 62.6378 84.4663 62.819 84.7684 62.9984ZM79.9416 63.5238C78.6469 63.6361 77.3493 63.7465 76.049 63.8548C75.1888 63.8745 74.3284 63.8957 73.4686 63.9114C74.621 63.752 75.7658 63.5936 76.9117 63.4324C77.9201 63.4684 78.9311 63.4946 79.9416 63.5238ZM60.2674 64.977C59.9943 64.7601 59.7276 64.5476 59.4615 64.3356C60.7745 64.4743 62.048 64.5685 63.2705 64.6082C62.2684 64.7337 61.2689 64.8577 60.2674 64.977ZM65.9958 65.2693C66.6168 66.0574 67.2491 66.8363 67.8892 67.5974C67.3605 68.2877 66.8284 68.9768 66.2938 69.6646C64.4305 68.2422 62.6702 66.8744 61.0298 65.5797C62.6831 65.484 64.3384 65.3825 65.9958 65.2693ZM68.317 68.1025C70.5302 70.6899 72.8191 73.0294 75.0037 74.6869C81.4033 79.5431 88.6732 82.8079 96.3188 85.0939C95.8065 86.5896 95.2911 88.0859 94.7713 89.5815C90.701 87.0089 86.7981 84.4137 83.1904 81.93C77.2324 77.8284 71.6788 73.765 66.8075 70.0571C67.3131 69.4068 67.8167 68.7553 68.317 68.1025ZM96.9399 85.2785C108.789 88.73 121.507 89.8735 133.282 90.9289C136.543 91.2212 139.627 91.4987 142.618 91.818V110.63C129.015 109.184 110.972 99.7756 95.3331 89.9368C95.8732 88.3843 96.4081 86.8314 96.9399 85.2785ZM143.265 91.894C152.445 92.9746 159.971 97.3374 165.623 104.741C165.674 105.668 165.728 106.59 165.79 107.494L165.815 107.874L166.187 107.785C166.277 107.764 166.366 107.734 166.456 107.71C167.635 113.185 168.973 118.432 170.471 123.448C170.351 123.91 170.215 124.365 170.066 124.814C163.089 116.407 154.311 111.838 143.265 110.705V91.894ZM171.345 126.297C171.371 126.378 171.398 126.457 171.423 126.538C171.376 126.475 171.328 126.411 171.28 126.348C171.302 126.331 171.323 126.314 171.345 126.297ZM171.89 125.866C172.65 125.251 173.383 124.603 174.092 123.926C175.002 127.803 175.963 131.678 176.99 135.545C175.638 132.889 174.195 130.455 172.655 128.237C172.396 127.453 172.14 126.662 171.89 125.866ZM177.297 137.632C177.363 138.644 177.363 139.622 177.266 140.529C175.918 137.347 174.649 134.049 173.464 130.63C174.821 132.777 176.096 135.111 177.297 137.632ZM178.004 139.278C178.163 139.854 178.327 140.43 178.49 141.006C178.271 141.287 178.054 141.568 177.829 141.85C177.803 141.791 177.778 141.731 177.753 141.673C177.909 140.924 177.989 140.12 178.004 139.278ZM178.709 141.776C179.225 143.59 179.753 145.403 180.3 147.212C179.553 145.677 178.828 144.113 178.124 142.516C178.322 142.268 178.515 142.022 178.709 141.776ZM180.158 144.466C180.712 146.024 181.228 147.606 181.727 149.158C181.982 149.948 182.24 150.744 182.503 151.54C182.351 151.256 182.2 150.972 182.05 150.686C181.398 148.616 180.767 146.543 180.158 144.466ZM193.519 98.9789C192.986 90.2592 190.356 81.4024 184.816 74.6721C185.911 75.4535 187.06 76.1746 188.26 76.8375C194.738 84.1818 198.376 94.3005 199.827 104.272C197.621 102.697 195.52 100.933 193.519 98.9789ZM181.097 70.7198C183.045 71.9533 184.882 73.3838 186.575 75.0502C184.602 73.7773 182.787 72.3222 181.097 70.7198ZM176.715 67.6352C176.715 67.6334 176.714 67.6318 176.713 67.63C176.98 67.7278 177.248 67.8241 177.512 67.9262C177.55 67.9693 177.586 68.0139 177.623 68.0567C177.322 67.9124 177.02 67.7718 176.715 67.6352ZM169.864 62.2573C169.823 61.8998 169.782 61.5418 169.739 61.1821C170.497 61.6436 171.209 62.1361 171.871 62.6603C171.205 62.5194 170.536 62.3846 169.864 62.2573ZM163.327 58.7014C163.327 58.5584 163.325 58.4144 163.325 58.2714C163.969 58.4898 164.598 58.7211 165.212 58.9645C164.585 58.8728 163.957 58.7848 163.327 58.7014ZM162.57 54.9752C162.556 54.878 162.542 54.7786 162.528 54.6811C162.57 54.6959 162.612 54.7109 162.654 54.7257C162.657 55.0287 162.661 55.3314 162.663 55.6338C162.632 55.4157 162.6 55.1933 162.57 54.9752ZM162.432 54.0012C162.381 53.6435 162.329 53.2808 162.279 52.9224C162.396 52.9685 162.516 53.0153 162.631 53.0608C162.636 53.3992 162.641 53.7376 162.644 54.0757C162.573 54.0511 162.503 54.0252 162.432 54.0012ZM161.745 53.7757C161.612 53.7327 161.48 53.6881 161.345 53.6456C161.289 53.2599 161.232 52.8766 161.175 52.4948C161.313 52.5474 161.45 52.6 161.586 52.6523C161.639 53.0261 161.693 53.4032 161.745 53.7757ZM161.067 51.79C160.629 48.9491 160.138 46.2325 159.488 43.7105C159.779 43.7761 160.055 43.8391 160.332 43.9022C160.723 46.5991 161.109 49.2798 161.486 51.9484C161.348 51.8958 161.208 51.8429 161.067 51.79ZM159.304 43.0076C158.541 40.2248 157.563 37.6983 156.222 35.5258C156.741 35.5418 157.244 35.5523 157.715 35.5523C158.164 35.5523 158.587 35.5437 158.988 35.5277C159.032 35.6135 159.077 35.699 159.12 35.7849C159.5 38.2671 159.872 40.7429 160.232 43.2177C159.928 43.1488 159.623 43.0796 159.304 43.0076ZM160.598 41.2428C160.717 41.6999 160.833 42.1515 160.956 42.6142C161.024 42.8698 161.107 43.1488 161.198 43.4377C161.1 43.4152 161.01 43.3946 160.909 43.3715C160.806 42.6622 160.702 41.9534 160.598 41.2428ZM159.751 35.4849C160.516 35.4277 161.172 35.332 161.705 35.1915C161.885 36.9246 162.025 38.6596 162.144 40.3946C161.378 38.8353 160.604 37.2738 159.814 35.7184C159.793 35.6406 159.772 35.5621 159.751 35.4849ZM159.633 34.8614C159.2 32.0543 158.749 29.2549 158.282 26.4595C158.557 26.2466 158.799 26.0147 158.995 25.7547C159.694 26.9972 160.36 28.288 160.999 29.6142C161.087 30.1827 161.173 30.7573 161.252 31.3504C161.397 32.4274 161.517 33.5063 161.634 34.5854C161.121 34.7245 160.438 34.8128 159.633 34.8614ZM161.937 31.635C162.058 31.9042 162.18 32.1721 162.299 32.4437C162.447 32.8612 162.59 33.2734 162.729 33.681C162.706 33.7699 162.683 33.8576 162.655 33.937C162.6 34.0951 162.461 34.2295 162.257 34.3446C162.158 33.4411 162.055 32.5373 161.937 31.635ZM156.075 17.8995C155.775 17.4562 155.468 17.0209 155.154 16.5967C155.444 16.9176 155.728 17.2492 156.006 17.59C156.03 17.6937 156.053 17.7968 156.075 17.8995ZM151.701 12.7046C150.741 11.819 149.73 11.0395 148.666 10.3956C148.556 10.0224 148.404 9.64745 148.21 9.27645C149.618 9.46657 150.919 9.91662 152.103 10.6359C152.419 10.8281 152.727 11.0416 153.027 11.2702C153.501 12.3423 153.836 13.4417 154.018 14.5322C153.281 13.861 152.509 13.2501 151.701 12.7046ZM146.797 8.31912C146.855 8.38772 146.906 8.45971 146.96 8.53015C146.178 8.5117 145.368 8.56553 144.532 8.68981C144.223 8.61875 143.909 8.56122 143.593 8.51293C143.576 8.30805 143.563 8.10194 143.546 7.89737C144.056 7.47438 144.552 7.11631 145.035 6.81391C145.69 7.21229 146.288 7.71648 146.797 8.31912ZM143.475 7.13292C143.444 6.78253 143.41 6.43338 143.376 6.08391C143.722 6.18666 144.061 6.3094 144.388 6.46445C144.088 6.6644 143.783 6.89143 143.475 7.13292ZM142.868 7.6325C142.607 7.85676 142.344 8.09148 142.078 8.34435C141.892 8.32774 141.695 8.31236 141.502 8.29636C141.609 7.44946 141.733 6.62595 141.871 5.81351C142.156 5.83258 142.437 5.86919 142.716 5.92272C142.771 6.49121 142.818 7.06216 142.868 7.6325ZM140.856 8.2456C140.635 8.22899 140.413 8.21299 140.184 8.19792C139.615 7.43255 139.038 6.76377 138.454 6.1882C139.322 5.94764 140.25 5.80398 141.212 5.7929C141.077 6.59488 140.962 7.41132 140.856 8.2456ZM139.327 8.14562C138.659 8.10748 137.964 8.07548 137.247 8.04964C136.668 7.84815 136.094 7.66296 135.526 7.49838C136.177 7.06955 136.929 6.69732 137.75 6.40877C138.279 6.90404 138.805 7.4833 139.327 8.14562ZM134.869 7.99181H134.854C134.855 7.99089 134.856 7.98996 134.857 7.98904L134.869 7.99181ZM137.112 8.68827C137.863 8.95099 138.624 9.24569 139.395 9.57424C137.34 9.54501 135.33 9.59669 133.356 9.72343C133.553 9.35182 133.817 8.98236 134.154 8.62706C135.172 8.63413 136.162 8.65474 137.112 8.68827ZM132.609 9.77019C130.19 9.95015 127.827 10.2498 125.507 10.6552C125.781 10.0215 126.151 9.42196 126.605 8.86054C128.882 8.70027 131.137 8.62706 133.283 8.62398C132.995 8.99129 132.771 9.37612 132.609 9.77019ZM132.41 10.4356C132.389 10.5399 132.362 10.6439 132.351 10.7491C132.308 11.1591 132.357 11.5603 132.475 11.947C130.009 12.7345 127.59 13.6011 125.212 14.5372C125.009 13.9065 124.935 13.2451 125.003 12.5542C125.044 12.146 125.125 11.7501 125.241 11.3652C127.584 10.9426 129.968 10.6269 132.41 10.4356ZM124.606 14.779C123.993 15.0238 123.377 15.2632 122.769 15.5169C122.294 15.5129 121.82 15.5089 121.361 15.5099C122.106 14.1394 122.866 12.8529 123.641 11.6726C123.94 11.6116 124.238 11.548 124.538 11.4907C124.458 11.8165 124.392 12.1481 124.359 12.4915C124.28 13.2904 124.366 14.0536 124.606 14.779ZM120.25 16.1528C120.149 16.3457 120.048 16.5413 119.948 16.737C119.148 17.0926 118.354 17.4602 117.561 17.83C117.403 17.3126 117.305 16.777 117.266 16.2245C118.22 16.1882 119.212 16.1633 120.25 16.1528ZM117.191 18.7141C117.439 19.3127 117.754 19.8902 118.156 20.4383C117.227 22.4681 116.334 24.5901 115.481 26.7524C114.93 26.7293 114.379 26.7022 113.829 26.673C112.257 25.4123 111.041 23.9108 110.343 22.1383C112.604 20.9456 114.885 19.8025 117.191 18.7141ZM112.788 26.6121C109.807 26.4306 106.834 26.1396 103.89 25.6818C105.839 24.5725 107.793 23.4869 109.761 22.4407C110.405 24.0409 111.455 25.421 112.788 26.6121ZM113.621 27.3073C113.898 27.5214 114.182 27.7297 114.476 27.9306C112.505 29.4884 110.552 31.0511 108.613 32.6062C107.238 31.7482 106.02 30.7853 105.033 29.6963C104.068 28.6326 103.356 27.4805 102.887 26.2531C102.919 26.2343 102.951 26.2156 102.983 26.1968C106.501 26.7828 110.061 27.1141 113.621 27.3073ZM104.552 30.1292C105.534 31.2117 106.734 32.1718 108.084 33.0307C108.061 33.0492 108.038 33.0676 108.015 33.0861C106.141 34.5894 104.277 36.0833 102.416 37.5602C100.579 36.5189 98.9772 35.332 97.7309 33.9714C96.7643 32.9163 96.0464 31.7827 95.5578 30.5845C97.8124 29.222 100.065 27.8844 102.322 26.581C102.82 27.8441 103.557 29.0319 104.552 30.1292ZM108.42 33.5884C108.501 33.5238 108.583 33.4586 108.663 33.3937C109.81 34.0766 111.06 34.6863 112.373 35.2361C111.865 36.7228 111.377 38.1951 110.912 39.6357C108.824 39.425 106.754 39.1334 104.722 38.735C104.14 38.4677 103.577 38.188 103.031 37.8967C104.823 36.4736 106.617 35.0352 108.42 33.5884ZM104.403 39.3315C106.235 40.1833 108.228 40.9142 110.302 41.5473C109.789 43.1713 109.307 44.7417 108.858 46.2346C104.667 45.2219 100.688 43.9474 97.318 42.369C98.8529 41.1886 100.384 39.9916 101.916 38.7808C102.737 38.986 103.568 39.1648 104.403 39.3315ZM108.676 46.8409C108.27 48.1954 107.892 49.4782 107.544 50.6727C101.981 49.5859 96.4883 48.1954 91.8714 46.4549C93.5069 45.2619 95.1324 44.0434 96.7525 42.8037C100.221 44.4599 104.339 45.7895 108.676 46.8409ZM107.368 51.2763C107.187 51.8971 107.013 52.4945 106.85 53.0587C106.784 53.2863 106.72 53.5066 106.657 53.7231C100.675 52.7892 94.921 51.1738 89.8837 48.2954C89.7874 48.2403 89.6828 48.1785 89.5708 48.1114C90.1396 47.7081 90.7068 47.3018 91.2726 46.8923C95.9969 48.7079 101.649 50.1525 107.368 51.2763ZM89.5615 48.855C92.6655 50.6284 96.0301 51.9318 99.5458 52.8932C95.1514 51.9866 90.9023 50.9579 87.1119 49.8212C87.7415 49.3902 88.3692 48.9552 88.9945 48.5157C89.2032 48.6442 89.3958 48.7602 89.5615 48.855ZM106.348 54.7845C106.126 55.5437 105.929 56.2112 105.761 56.7597C98.0701 55.4788 90.1607 53.9354 83.3287 52.3311C84.3746 51.6587 85.414 50.9733 86.4461 50.2747C92.3646 52.073 99.4055 53.5853 106.348 54.7845ZM105.591 57.3057C105.555 57.4177 105.52 57.5263 105.488 57.6235L105.459 57.7115C105.088 58.0145 104.718 58.3058 104.348 58.5864C96.1606 57.2735 87.7163 55.7307 80.2055 54.2812C81.0176 53.7899 81.8248 53.29 82.627 52.7812C89.6155 54.4288 97.7392 56.0017 105.591 57.3057ZM77.2702 57.3214C77.344 57.3322 77.4197 57.3436 77.4935 57.3547C79.5891 59.2469 81.3935 60.8022 82.4913 61.5519C82.6737 61.6768 82.8603 61.794 83.0446 61.9158C82.5143 61.9906 81.9829 62.0656 81.4539 62.1407C79.9394 62.3554 78.4064 62.5708 76.8765 62.7858C75.4003 62.7332 73.9303 62.6646 72.4596 62.5969C73.7883 60.7991 75.0994 58.9965 76.3935 57.1907C76.6855 57.2341 76.9767 57.2774 77.2702 57.3214ZM73.3132 63.2814C72.8104 63.3509 72.3053 63.4186 71.8016 63.4878C71.8673 63.3992 71.9325 63.3103 71.9979 63.2217C72.4362 63.2423 72.8746 63.262 73.3132 63.2814ZM70.904 63.6099C70.0055 63.7324 69.1114 63.8579 68.2111 63.9775C67.4037 63.9834 66.5979 63.9855 65.7923 63.9868C65.4281 63.5143 65.0695 63.0411 64.7161 62.5683C66.397 62.8301 68.0105 63.0288 69.4719 63.1073C70.0528 63.1383 70.6382 63.1577 71.2203 63.1863C71.115 63.3278 71.0092 63.4687 70.904 63.6099ZM65.0023 63.9898C64.8048 63.9895 64.6063 63.9923 64.4091 63.992C63.0798 63.9901 61.6633 63.8997 60.2013 63.7604C61.4294 63.3426 62.6414 62.9027 63.8364 62.4382C64.2185 62.955 64.6069 63.4724 65.0023 63.9898ZM59.2986 65.0373C58.2227 65.0918 57.1042 65.1019 55.9598 65.0841C56.7903 64.8478 57.6134 64.6008 58.4279 64.3427C58.7128 64.5709 59.0057 64.8041 59.2986 65.0373ZM54.0289 65.6722C53.9088 65.6839 53.7864 65.6922 53.6657 65.703L53.8156 65.6642C53.8872 65.6676 53.9573 65.6692 54.0289 65.6722ZM49.7678 65.9445C46.0801 66.0635 42.2522 65.9337 38.4426 65.747C38.2852 65.2136 38.1469 64.7014 38.0265 64.2101C39.558 64.3596 41.0968 64.5236 42.6277 64.6888C45.6184 65.0112 48.6595 65.336 51.6092 65.5387C50.9996 65.6796 50.3863 65.8156 49.7678 65.9445ZM48.2336 66.6182L48.2875 66.9024C48.8116 66.8037 49.328 66.6945 49.8459 66.5871C51.4644 66.5336 53.0579 66.4339 54.6119 66.27C56.4261 66.0786 58.247 65.8651 60.0683 65.6489C61.8717 67.0772 63.8226 68.595 65.8954 70.1768C60.8093 76.6951 55.4441 83.0943 49.7163 89.2601C45.0593 81.8327 40.6565 72.8439 38.6414 66.4025C41.8586 66.5582 45.084 66.664 48.2336 66.6182ZM66.4098 70.5684C71.2299 74.2356 76.6864 78.228 82.5011 82.2397C86.2495 84.8256 90.3134 87.5309 94.5537 90.2082C91.4032 99.2511 88.0976 108.282 84.5226 117.215C75.315 113.105 66.4762 107.73 58.53 100.629C55.9837 98.3538 52.9909 94.4143 50.0737 89.8249C55.8604 83.6047 61.2775 77.147 66.4098 70.5684ZM95.1151 90.5635C110.848 100.45 128.941 109.85 142.618 111.28V130.426C125.009 128.89 104.288 125.907 85.1156 117.476C88.6792 108.573 91.9744 99.5738 95.1151 90.5635ZM143.265 111.354C154.22 112.493 162.908 117.086 169.806 125.531C169.593 126.097 169.363 126.655 169.097 127.196L168.55 128.303L169.571 127.604C169.976 127.326 170.372 127.038 170.765 126.745C171.208 127.324 171.642 127.923 172.07 128.536C173.591 133.136 175.258 137.527 177.064 141.714C176.89 142.481 176.634 143.184 176.258 143.78C175.979 144.115 175.696 144.45 175.409 144.787L175.872 145.236C176.236 144.91 176.545 144.541 176.805 144.133C177.099 143.78 177.378 143.431 177.663 143.081C178.868 145.797 180.132 148.425 181.459 150.962C182.442 154.081 183.469 157.191 184.554 160.287C184.313 159.801 184.075 159.321 183.843 158.849C182.208 155.542 180.796 152.685 179.644 151.147C170.006 138.273 158.775 131.894 143.265 130.486V111.354ZM183.138 154.068C183.357 154.46 183.579 154.849 183.801 155.237C184.59 157.311 185.486 159.336 186.593 161.22L187.167 160.923C187.087 160.749 187.016 160.583 186.95 160.422C190.44 165.838 194.263 170.76 198.419 175.184C198.308 175.278 198.193 175.36 198.064 175.415C197.397 175.696 196.323 175.48 194.581 174.714C192.008 173.584 189.339 169.425 186.898 164.863C185.57 161.283 184.321 157.682 183.138 154.068ZM186.452 158.409C186.427 157.137 187.152 156.284 188.335 154.905C189.321 153.756 190.548 152.327 191.858 150.07C193.23 147.708 194.452 145.239 195.53 142.647C199.212 146.151 203.179 148.878 207.377 150.945C205.452 158.225 202.925 164.977 200.63 170.367C200.297 171.147 200.032 171.858 199.799 172.484C199.451 173.419 199.173 174.16 198.844 174.678C194.315 169.851 190.184 164.425 186.452 158.409ZM195.79 142C198.022 136.469 199.613 130.387 200.601 123.605C201.382 118.244 201.455 112.011 200.662 105.657C203.046 107.259 205.55 108.652 208.18 109.842C209.803 116.917 210.558 123.901 210.503 129.924C210.441 136.727 209.246 143.716 207.545 150.298C203.374 148.231 199.438 145.505 195.79 142ZM200.552 104.777C199.216 95.0394 195.819 85.1013 189.773 77.6284C191.097 78.2772 192.489 78.8488 193.948 79.3456C200.813 87.3306 205.416 98.2452 207.991 109.027C205.387 107.817 202.91 106.4 200.552 104.777ZM188.616 76.2632C188.151 75.7424 187.678 75.2305 187.185 74.7383C184.801 72.3597 182.139 70.4426 179.28 68.8968C179.152 68.7605 179.024 68.6245 178.898 68.4867C183.511 70.4251 187.772 73.063 191.444 76.6643C191.984 77.1941 192.507 77.7472 193.023 78.3107C191.472 77.7204 190.008 77.0322 188.616 76.2632ZM191.898 76.2044C187.835 72.2204 183.077 69.3933 177.925 67.3894C177.679 67.1042 177.44 66.8123 177.201 66.521C184.258 68.7694 190.808 72.2053 196.297 77.4488C197.137 78.2514 197.957 79.094 198.76 79.9642C197.201 79.6434 195.715 79.2398 194.298 78.7608C193.526 77.8708 192.726 77.0169 191.898 76.2044ZM176.66 66.9191C176.537 66.8748 176.415 66.8277 176.292 66.7843C176.17 66.5613 176.037 66.3423 175.901 66.1248C175.957 66.1411 176.013 66.1574 176.068 66.174C176.265 66.4229 176.46 66.6745 176.66 66.9191ZM175.327 65.2788C175.267 65.1976 175.21 65.1151 175.148 65.0352C175.158 65.0309 175.168 65.0275 175.178 65.0229C175.245 65.1124 175.31 65.2047 175.377 65.2936C175.361 65.2889 175.344 65.2834 175.327 65.2788ZM174.043 64.7687C174.044 64.7497 174.045 64.7303 174.047 64.7112C174.059 64.726 174.074 64.7401 174.087 64.7549C174.072 64.7595 174.057 64.7641 174.043 64.7687ZM169.645 60.3851C169.644 60.3731 169.642 60.3611 169.641 60.3491C170.349 60.4795 171.054 60.6167 171.758 60.7601C171.89 61.2015 172.022 61.6356 172.154 62.0699C171.379 61.467 170.541 60.9056 169.645 60.3851ZM171.547 60.0544C170.887 59.9218 170.224 59.7972 169.559 59.676C169.488 59.0955 169.415 58.5132 169.34 57.9299C170.141 58.4809 170.85 59.0675 171.44 59.6957C171.476 59.8157 171.512 59.9347 171.547 60.0544ZM168.891 59.5517C168.492 59.4813 168.089 59.4179 167.688 59.3512C166.323 58.6956 164.86 58.1145 163.321 57.6005C163.317 56.72 163.313 55.8402 163.304 54.9564C165.287 55.6824 167.098 56.5151 168.627 57.4642C168.718 58.1619 168.806 58.8577 168.891 59.5517ZM168.439 56.0479C168.257 55.8888 168.057 55.6766 167.841 55.4074C168.062 55.5338 168.241 55.6492 168.399 55.7596C168.413 55.8556 168.426 55.9519 168.439 56.0479ZM163.295 54.303C163.292 53.9766 163.286 53.6493 163.281 53.3223C164.564 53.8413 165.695 54.3301 166.598 54.7638C167.003 55.3646 167.388 55.8667 167.738 56.2417C166.395 55.5249 164.896 54.8801 163.295 54.303ZM163.272 52.6477C163.251 51.2471 163.22 49.8437 163.179 48.4372C164.05 50.3423 165.044 52.2681 165.985 53.8065C165.181 53.4367 164.265 53.0473 163.272 52.6477ZM162.621 52.3874C162.476 52.3305 162.326 52.2727 162.178 52.2152C161.796 49.5102 161.406 46.7914 161.009 44.0563C161.155 44.0895 161.294 44.1212 161.435 44.1535C161.722 44.9826 162.078 45.8996 162.482 46.8548C162.548 48.7036 162.592 50.5475 162.621 52.3874ZM162.179 44.3233C162.245 44.3387 162.311 44.3538 162.376 44.3685C162.384 44.5522 162.391 44.7359 162.399 44.9198C162.323 44.7177 162.248 44.5184 162.179 44.3233ZM162.099 43.6435C162.046 43.6312 161.985 43.6173 161.931 43.605C161.795 43.1953 161.676 42.8052 161.582 42.4496C161.338 41.5292 161.102 40.6192 160.87 39.7222C160.789 39.4072 160.708 39.0949 160.627 38.7836C161.173 39.8846 161.714 40.9856 162.252 42.0844C162.284 42.6231 162.319 43.1617 162.347 43.7001C162.264 43.6813 162.183 43.6626 162.099 43.6435ZM162.99 43.59C163.037 43.6862 163.084 43.7828 163.132 43.8791C163.089 43.8693 163.044 43.8591 163.001 43.8493C162.997 43.7628 162.994 43.6764 162.99 43.59ZM163.213 42.5748C163.106 42.3551 162.997 42.1346 162.889 41.9146C162.751 39.6037 162.574 37.2913 162.332 34.9813C162.622 34.8571 162.853 34.7109 163.017 34.5393C164.591 39.3023 165.483 43.191 165.756 44.4535C165.372 44.3809 164.725 44.239 163.942 44.0628C163.699 43.5675 163.456 43.0719 163.213 42.5748ZM159.64 24.1566C159.684 23.9173 159.715 23.6656 159.736 23.4042C159.901 24.0373 160.06 24.6873 160.209 25.364C160.024 24.9604 159.834 24.5578 159.64 24.1566ZM156.573 17.2566C156.325 16.1876 156.057 15.1444 155.762 14.1459C156.973 15.8356 158.013 17.953 158.883 20.5233C158.16 19.357 157.391 18.2659 156.573 17.2566ZM155.677 16.2036C155.38 15.8738 155.077 15.5542 154.767 15.2456C154.665 14.2292 154.43 13.199 154.078 12.182C154.28 12.3764 154.48 12.5757 154.674 12.7892C155.058 13.8982 155.389 15.0567 155.677 16.2036ZM153.553 10.8681C152.944 9.5244 152.129 8.22899 151.131 7.04678C151.663 7.50084 152.169 7.9795 152.647 8.47324C153.202 9.3066 153.692 10.2812 154.125 11.3354C153.939 11.1702 153.746 11.0188 153.553 10.8681ZM148.051 5.04783C147.097 5.11458 146.087 5.4542 145.022 6.07038C144.479 5.77721 143.907 5.54557 143.311 5.39083C143.254 4.81157 143.192 4.23354 143.129 3.65644C144.727 3.68289 146.228 4.07758 147.612 4.72728C147.761 4.82757 147.905 4.94078 148.051 5.04783ZM143.055 3.00427C143.05 2.96397 143.046 2.92367 143.042 2.88338C143.291 2.92091 143.54 2.97536 143.789 3.03319C143.545 3.01412 143.3 3.00643 143.055 3.00427ZM142.48 3.65059C142.539 4.18371 142.593 4.71867 142.647 5.25394C142.427 5.21733 142.206 5.19272 141.983 5.17611C142.079 4.66453 142.188 4.15725 142.307 3.65336C142.367 3.65244 142.423 3.65152 142.48 3.65059ZM141.328 5.14381C140.16 5.14566 138.998 5.34346 137.912 5.68215C137.067 4.93893 136.208 4.39659 135.338 4.04712C137.899 3.80595 140.111 3.7072 141.631 3.66813C141.519 4.15664 141.419 4.64853 141.328 5.14381ZM137.202 5.92795C136.276 6.28264 135.423 6.73946 134.701 7.27319C132.886 6.79914 131.128 6.51028 129.42 6.38969C130.716 5.5388 132.196 4.83218 133.723 4.27538C134.895 4.43535 136.057 4.98692 137.202 5.92795ZM134.078 7.78508C134.006 7.8503 133.938 7.91706 133.869 7.9835C131.741 7.97612 129.496 8.03365 127.218 8.17885C127.62 7.76663 128.064 7.37594 128.545 7.00894C130.331 7.07324 132.173 7.32211 134.078 7.78508ZM125.724 8.92361C125.315 9.50748 124.987 10.1301 124.75 10.7897C124.554 10.826 124.358 10.8601 124.162 10.8979C124.647 10.1975 125.136 9.54009 125.63 8.93222C125.661 8.92945 125.692 8.92607 125.724 8.92361ZM116.896 13.3866C116.754 13.9111 116.655 14.4523 116.613 15.0146C116.598 15.2186 116.599 15.4182 116.597 15.6182C114.137 15.7292 111.946 15.9212 110.001 16.179C110.034 16.0556 110.065 15.9319 110.102 15.811C112.345 14.8983 114.605 14.0859 116.896 13.3866ZM109.306 16.2768C109.137 16.3011 108.966 16.3245 108.801 16.3497C108.983 16.2722 109.165 16.1946 109.348 16.1184C109.334 16.1716 109.318 16.2233 109.306 16.2768ZM106.371 17.4295C107.239 17.247 108.17 17.0788 109.176 16.9293C109.108 17.3418 109.064 17.766 109.046 18.2031C108.993 19.5192 109.173 20.7226 109.535 21.8297C107.294 23.0199 105.071 24.2551 102.855 25.5249C102.817 25.5188 102.779 25.5145 102.741 25.508C102.705 25.5019 102.672 25.4969 102.636 25.4908C102.309 24.372 102.167 23.1965 102.237 21.9623C102.259 21.5695 102.31 21.1868 102.376 20.8096C103.204 19.8831 104.048 18.9836 104.909 18.1167C105.396 17.8826 105.883 17.6543 106.371 17.4295ZM101.924 25.3767C100.853 25.2081 99.8342 25.077 98.8734 24.9872C99.7691 23.8558 100.684 22.7471 101.618 21.6701C101.611 21.7562 101.596 21.839 101.591 21.9257C101.523 23.1276 101.638 24.2781 101.924 25.3767ZM101.967 26.0405C99.7518 27.3202 97.5417 28.6316 95.3297 29.9677C95.3081 29.9031 95.2889 29.8378 95.2688 29.7726C96.2861 28.3616 97.3266 26.9637 98.3942 25.596C99.5038 25.6886 100.695 25.8372 101.967 26.0405ZM94.9981 30.9232C95.5145 32.1546 96.2581 33.3205 97.2532 34.4067C98.4979 35.7652 100.067 36.9554 101.858 38.0019C101.829 38.0253 101.8 38.0487 101.77 38.0718C99.9534 37.6048 98.1762 37.0415 96.463 36.3484C95.9454 36.1393 95.3519 35.8876 94.7041 35.6126C93.864 35.2564 92.9411 34.8654 91.9779 34.4781C92.6532 33.4881 93.3384 32.496 94.0344 31.5064C94.356 31.3111 94.6768 31.1179 94.9981 30.9232ZM91.3619 34.2341C90.9983 34.0917 90.6313 33.9508 90.261 33.8133C91.0628 33.3205 91.8615 32.8323 92.6609 32.3441C92.2236 32.9744 91.7909 33.6047 91.3619 34.2341ZM90.9881 34.7829C90.5184 35.4751 90.0542 36.1648 89.5934 36.8508C89.1045 36.2442 88.7044 35.6169 88.3766 34.9737C88.7701 34.7313 89.164 34.4885 89.5566 34.247C90.0393 34.4199 90.5181 34.6002 90.9881 34.7829ZM91.6047 35.026C92.6312 35.4354 93.6025 35.8467 94.4503 36.2063C95.1022 36.4826 95.6988 36.736 96.2188 36.9465C97.8126 37.5909 99.4609 38.1201 101.142 38.5701C99.6488 39.748 98.1558 40.9121 96.6592 42.0604C94.0818 40.7918 91.8979 39.333 90.3047 37.6611C90.2084 37.5602 90.1261 37.4556 90.0347 37.3535C90.5523 36.5819 91.0751 35.8052 91.6047 35.026ZM89.8356 38.1053C91.4189 39.7668 93.5721 41.2191 96.1026 42.4883C94.4606 43.7422 92.8131 44.9733 91.1545 46.178C89.1761 45.4006 87.3752 44.5556 85.8166 43.6392C85.9576 43.4306 86.1001 43.222 86.2412 43.0135C87.0193 41.8629 87.8088 40.6813 88.6115 39.4801C88.9594 38.9596 89.3099 38.4351 89.6627 37.9081C89.7226 37.9733 89.7742 38.0404 89.8356 38.1053ZM90.5556 46.6111C90.0294 46.9904 89.5019 47.3676 88.9732 47.7411C88.2714 47.2984 87.3956 46.7216 86.4277 46.0839C85.899 45.7356 85.3758 45.3929 84.856 45.0536C85.0582 44.7568 85.2595 44.4599 85.4607 44.1631C86.961 45.0429 88.6763 45.8581 90.5556 46.6111ZM86.0711 46.6222C86.9393 47.1944 87.7338 47.7177 88.3998 48.1422C87.7085 48.6267 87.0146 49.1057 86.318 49.5791C85.019 49.1774 83.7789 48.7627 82.6107 48.3357C83.2419 47.4187 83.87 46.5022 84.4943 45.5864C85.0582 45.9547 85.589 46.3044 86.0711 46.6222ZM85.6557 50.0304C84.5958 50.7429 83.5283 51.4396 82.4536 52.1235C81.7357 51.9521 81.0314 51.7802 80.341 51.6079C80.9774 50.6961 81.6105 49.784 82.2395 48.8722C83.3222 49.27 84.4631 49.6563 85.6557 50.0304ZM81.745 52.5717C80.9197 53.0897 80.0881 53.5973 79.2523 54.0969C79.0585 54.0594 78.8666 54.0218 78.674 53.9846C79.108 53.3691 79.5397 52.7538 79.9703 52.1383C80.5514 52.2831 81.1447 52.4274 81.745 52.5717ZM77.9778 53.849C76.5117 53.5629 75.0889 53.282 73.7176 53.0085C73.296 52.6172 72.8759 52.2272 72.4621 51.8429C71.2966 50.7604 70.293 49.8314 69.4269 49.0349C72.0584 50.0018 75.4453 50.9927 79.2996 51.9688C78.8607 52.5957 78.4204 53.2223 77.9778 53.849ZM77.5694 54.4261C77.3073 54.7964 77.0468 55.1668 76.7833 55.5369C76.7163 55.5747 76.65 55.6135 76.583 55.6513C75.9377 55.0613 75.2801 54.4556 74.6209 53.8456C75.5804 54.036 76.5657 54.2298 77.5694 54.4261ZM75.6743 57.0836C74.361 58.9137 73.0309 60.7404 71.6818 62.5615C70.9574 62.5268 70.2297 62.5019 69.5072 62.4631C68.1319 62.3893 66.6151 62.2062 65.0334 61.9647C68.6164 60.5143 72.0602 58.8605 75.4009 57.043C75.4923 57.0566 75.5829 57.0701 75.6743 57.0836ZM64.0442 61.6605C62.2294 59.186 60.597 56.7779 59.2803 54.7592C63.5988 55.3031 68.7768 56.0593 74.3298 56.884C71.016 58.6535 67.5982 60.2571 64.0442 61.6605ZM58.6485 63.5967C58.605 63.5915 58.5606 63.5856 58.5174 63.5804C57.1942 62.5182 55.9703 61.5202 54.8545 60.5977C57.4085 61.1744 60.0585 61.7506 62.6116 62.2136C61.3097 62.7021 59.9895 63.1645 58.6485 63.5967ZM53.7465 65.0155C50.1731 64.849 46.396 64.4461 42.6975 64.0474C41.092 63.8745 39.4775 63.701 37.8717 63.5459C37.722 62.8575 37.6141 62.2188 37.5533 61.638C37.8175 61.4981 38.0797 61.3541 38.343 61.2129C41.7624 61.5156 45.5243 62.1592 49.2316 62.7975C51.8757 63.2528 54.5644 63.7148 57.1622 64.0624C56.0393 64.4024 54.8993 64.7177 53.7465 65.0155ZM37.2146 63.4841C36.2831 63.3974 35.3553 63.3168 34.4358 63.2482C35.2766 62.823 36.1135 62.392 36.9466 61.9543C37.0077 62.4302 37.0992 62.943 37.2146 63.4841ZM37.3646 64.1452C37.4852 64.6463 37.6257 65.1702 37.7846 65.715C36.7322 65.6615 35.6816 65.6061 34.6368 65.5492C33.1643 65.4695 31.6843 65.3902 30.2047 65.3206C31.2439 64.83 32.2757 64.3273 33.3026 63.8173C34.6402 63.9037 35.9973 64.0157 37.3646 64.1452ZM49.6318 90.2986C52.5546 94.8927 55.5474 98.8303 58.0977 101.109C66.1065 108.266 75.0113 113.679 84.2828 117.815C82.2229 122.942 80.0714 128.035 77.8079 133.078C67.0577 127.702 57.5044 121.087 49.2002 113.243C44.982 109.259 41.4392 105.324 38.5346 101.396C42.3864 97.8056 46.0793 94.0978 49.6318 90.2986ZM84.8754 118.076C104.143 126.544 124.947 129.535 142.618 131.074V149.624C117.972 147.756 96.4907 142.312 78.3866 133.369C80.6554 128.316 82.8116 123.213 84.8754 118.076ZM143.265 131.134C158.546 132.535 169.619 138.835 179.126 151.533C180.242 153.024 181.641 155.856 183.262 159.134C184.213 161.059 185.234 163.123 186.302 165.119C187.922 169.488 189.657 173.828 191.515 178.132C191.302 177.833 191.091 177.536 190.885 177.247C189.466 175.25 188.24 173.526 187.183 172.335C174.336 157.861 161.186 151.074 143.265 149.678V131.134ZM188.372 168.755C190.293 171.885 192.312 174.422 194.32 175.305C195.663 175.895 196.648 176.178 197.411 176.178C197.753 176.178 198.051 176.121 198.316 176.009C198.523 175.921 198.701 175.797 198.867 175.652C203.281 180.286 208.066 184.367 213.22 187.888C211.213 189.785 208.799 191.015 206.033 190.922C201.52 190.789 197.003 185.589 193.293 180.584C191.548 176.671 189.912 172.726 188.372 168.755ZM199.303 175.159C199.71 174.571 200.019 173.748 200.406 172.708C200.637 172.088 200.898 171.386 201.225 170.618C203.518 165.236 206.041 158.5 207.971 151.23C213.023 153.631 218.402 155.098 224.015 155.836C223.183 163.053 221.459 170.677 218.839 178.536C217.809 181.628 216.058 184.983 213.693 187.421C208.523 183.899 203.727 179.808 199.303 175.159ZM208.731 109.363C206.238 98.6863 201.769 87.8348 195.104 79.7258C196.501 80.1503 197.965 80.4992 199.494 80.7773C207.215 89.4459 213.192 101.046 217.402 112.377C214.367 111.592 211.479 110.589 208.731 109.363ZM200.508 80.9499C201.998 81.1833 203.55 81.3476 205.172 81.4359C213.906 90.6675 221.334 102.416 228.009 114.196C224.566 113.877 221.285 113.339 218.16 112.573C214.013 101.303 208.122 89.7224 200.508 80.9499ZM199.821 80.1731C198.823 79.0607 197.8 77.9914 196.744 76.983C190.931 71.4288 183.957 67.8804 176.463 65.6153C176.234 65.3237 176.01 65.025 175.786 64.7275C175.984 64.6242 176.183 64.5236 176.38 64.4048C185.646 66.9092 194.16 70.9849 201.288 77.5851C202.38 78.5965 203.45 79.6538 204.504 80.7434C202.874 80.6293 201.313 80.4386 199.821 80.1731ZM175.393 64.2138C175.373 64.1861 175.352 64.1587 175.331 64.131C175.38 64.1433 175.428 64.1563 175.477 64.1689C175.449 64.1833 175.421 64.2 175.393 64.2138ZM174.789 64.495C174.769 64.5036 174.748 64.5103 174.728 64.519C174.529 64.2827 174.321 64.052 174.105 63.8256C174.182 63.844 174.259 63.8606 174.335 63.8791C174.484 64.0874 174.637 64.2895 174.789 64.495ZM173.272 62.9673C173.254 62.963 173.236 62.9584 173.217 62.9544C173.165 62.907 173.11 62.8618 173.057 62.815C172.909 62.3314 172.76 61.8405 172.611 61.3464C172.673 61.4427 172.736 61.5387 172.799 61.6347C173.011 62.0681 173.172 62.5117 173.272 62.9673ZM169.234 57.115C169.226 57.0501 169.217 56.9849 169.209 56.92C169.234 56.9086 169.264 56.8991 169.285 56.8865C169.481 56.7696 169.593 56.605 169.617 56.4189C169.93 56.9704 170.247 57.5165 170.568 58.0582C170.153 57.7321 169.708 57.4177 169.234 57.115ZM169.016 55.4923C169.008 55.4317 169 55.3714 168.991 55.3111C169.044 55.4062 169.096 55.5024 169.149 55.5975C169.109 55.5634 169.061 55.5274 169.016 55.4923ZM168.295 55.001C167.943 54.7866 167.534 54.5608 167.062 54.3233C165.803 52.4142 164.285 49.4508 163.124 46.7228C163.098 45.9885 163.064 45.253 163.03 44.5177C163.194 44.5553 163.349 44.5903 163.497 44.6239C165.011 47.7097 166.526 50.7564 168.109 53.6979C168.172 54.1323 168.234 54.5667 168.295 55.001ZM164.308 44.8066C165.445 45.0601 165.917 45.1499 166.14 45.1499C166.289 45.1499 166.33 45.1109 166.388 45.0555L166.517 44.933L166.482 44.7598C166.428 44.4879 166.135 43.035 165.579 40.8585C165.753 41.352 165.924 41.846 166.093 42.3416C166.758 45.4249 167.325 48.5883 167.817 51.7642C166.625 49.4899 165.465 47.1609 164.308 44.8066ZM155.21 12.4262C154.987 11.7898 154.751 11.1804 154.5 10.6026C154.767 10.9429 155.025 11.2816 155.264 11.6141C155.645 12.1429 156.012 12.6843 156.366 13.235C156.778 14.0437 157.146 14.8583 157.475 15.6671C156.787 14.424 156.032 13.3433 155.21 12.4262ZM149.875 5.27916C149.235 4.85064 148.589 4.47595 147.936 4.16741C146.359 3.11317 144.659 2.45024 142.967 2.22721C142.952 2.09985 142.939 1.97127 142.924 1.84391C145.662 1.9565 148.468 3.35497 151.073 5.88057C150.695 5.62463 150.296 5.42252 149.875 5.27916ZM141.79 3.01904C140.68 3.0455 139.172 3.10487 137.407 3.23161C138.882 2.92798 140.297 2.77109 141.52 2.77109C141.634 2.77109 141.741 2.77601 141.852 2.77848C141.831 2.85877 141.81 2.93875 141.79 3.01904ZM131.434 4.50333C130.318 5.0266 129.261 5.63755 128.318 6.33463C128.257 6.33278 128.197 6.33001 128.136 6.32878C129.124 5.49727 130.127 4.8894 131.139 4.54579C131.238 4.53163 131.336 4.51718 131.434 4.50333ZM127.165 6.32602C125.925 6.34509 124.713 6.45337 123.528 6.64349C124.149 6.27556 124.801 5.93102 125.476 5.60802C126.647 5.33115 127.826 5.09336 128.992 4.8891C128.376 5.28593 127.768 5.77075 127.165 6.32602ZM126.45 7.02002C126.058 7.42301 125.67 7.85953 125.284 8.32189C123.674 8.46032 122.063 8.64797 120.48 8.88884C120.958 8.4431 121.479 8.02073 122.035 7.6202C123.465 7.29258 124.937 7.09077 126.45 7.02002ZM119.433 9.0565C118.33 9.24354 117.246 9.45888 116.189 9.70528C117.592 9.02389 119.036 8.45663 120.523 8.01919C120.134 8.35112 119.773 8.69843 119.433 9.0565ZM109.587 15.3164C108.498 15.764 107.413 16.2359 106.331 16.7311C107.744 15.4007 109.201 14.1649 110.71 13.0513C110.243 13.7558 109.866 14.5101 109.587 15.3164ZM103.167 18.9747C103.02 19.1309 102.874 19.2872 102.728 19.4453C102.761 19.3469 102.789 19.2466 102.826 19.1494C102.94 19.0916 103.053 19.0322 103.167 18.9747ZM95.7575 25.4696C96.3445 25.4696 96.9714 25.4963 97.6183 25.5366C96.7461 26.6641 95.8918 27.81 95.0535 28.966C94.852 28.0524 94.7671 27.1077 94.8224 26.1282C94.8344 25.9116 94.8596 25.6997 94.8911 25.4899C95.1745 25.4794 95.4587 25.4696 95.7575 25.4696ZM88.7696 33.9733C88.5458 34.1111 88.3217 34.2492 88.0976 34.387C87.997 34.1514 87.913 33.912 87.8337 33.6718C88.1448 33.7678 88.4569 33.8677 88.7696 33.9733ZM82.96 38.3077C84.3075 37.4808 85.6501 36.6533 86.9902 35.8276C87.2682 35.6563 87.5442 35.4865 87.8217 35.3154C88.1933 36.0344 88.6605 36.7314 89.2213 37.4054C88.8355 37.9813 88.4529 38.5544 88.073 39.1226C87.2708 40.3227 86.482 41.503 85.7039 42.6532C85.5573 42.8698 85.4091 43.087 85.2622 43.3039C83.8366 42.416 82.6351 41.4643 81.7231 40.4429C81.446 40.1322 81.2079 39.8169 80.9909 39.4985C81.648 39.1008 82.2974 38.7147 82.96 38.3077ZM81.2397 40.8718C82.1832 41.9288 83.4283 42.9129 84.9058 43.829C84.7085 44.1197 84.5115 44.4101 84.3137 44.7008C82.1909 43.3232 80.1724 42.0604 78.3888 41.0683C79.0657 40.666 79.7542 40.2454 80.4369 39.8335C80.6745 40.1839 80.9354 40.5312 81.2397 40.8718ZM83.9516 45.2339C83.3004 46.1894 82.6443 47.1461 81.9853 48.1025C78.4153 46.7526 75.5745 45.2822 73.8696 43.7084C75.1468 42.9747 76.4369 42.2195 77.7348 41.4516C79.7594 42.5563 82.0103 43.9729 83.9516 45.2339ZM73.3943 43.2356C73.3585 43.1971 73.3193 43.159 73.2851 43.1202C72.4101 42.1336 72.0271 41.1351 72.146 40.1528C72.1858 39.828 72.3318 39.7213 72.4553 39.6646C72.5886 39.6028 72.7539 39.5739 72.9486 39.5739C73.8425 39.5739 75.3421 40.1913 77.0687 41.0939C75.8356 41.8217 74.6088 42.5391 73.3943 43.2356ZM73.2802 44.0419C75.0181 45.7086 77.9407 47.2449 81.6135 48.6399C80.9697 49.573 80.3215 50.506 79.67 51.4393C74.9435 50.2414 70.9354 49.0312 68.1759 47.8906C67.9314 47.6681 67.706 47.4642 67.4887 47.2688C69.3989 46.2309 71.3277 45.1579 73.2802 44.0419ZM67.759 48.3828C69.0843 49.5871 70.591 50.9871 72.0203 52.3148C72.1824 52.4653 72.3444 52.616 72.5067 52.7664C68.0935 51.8817 64.2792 51.0896 61.4073 50.4832C63.0878 49.624 64.7831 48.7322 66.4924 47.8124C66.8809 48.001 67.3019 48.1911 67.759 48.3828ZM58.0106 53.9579C56.943 53.8296 55.9489 53.7185 55.0292 53.6253C55.7359 53.2894 56.4427 52.9535 57.1535 52.6068C57.414 53.023 57.7023 53.4773 58.0106 53.9579ZM52.3847 59.3764C49.8928 58.8113 47.5401 58.2886 45.4629 57.9105C46.6284 57.423 47.7978 56.9172 48.97 56.4019C49.8638 57.2116 51.014 58.2157 52.3847 59.3764ZM44.3449 58.3674C46.9119 58.794 49.999 59.4954 53.1684 60.2159C53.2644 60.2377 53.3644 60.2602 53.4613 60.2823C54.6144 61.2467 55.891 62.2973 57.2906 63.4281C54.6904 63.0811 51.9938 62.6181 49.3416 62.1619C45.8732 61.5651 42.4889 60.9859 39.3763 60.6552C40.0136 60.3085 40.6484 59.9575 41.2817 59.6037C42.3005 59.2038 43.3224 58.7882 44.3449 58.3674ZM33.1654 63.1626C32.6673 63.1316 32.1732 63.1051 31.6816 63.0823C33.3948 62.5117 35.1084 61.9149 36.8235 61.2889C35.6124 61.9269 34.3929 62.5514 33.1654 63.1626ZM26.3516 65.1714C25.9343 65.1591 25.5181 65.1496 25.1021 65.141C25.5394 65.013 25.978 64.8918 26.4147 64.7604C26.3912 64.8943 26.3707 65.0321 26.3516 65.1714ZM38.0587 101.837C40.9785 105.777 44.5309 109.721 48.7552 113.712C57.1135 121.606 66.7265 128.262 77.5443 133.669C75.369 138.493 73.0864 143.269 70.6821 147.986C59.0763 141.802 48.5786 134.169 39.2463 125.088C34.4519 120.423 30.4189 115.84 27.0961 111.297C30.8939 108.257 34.5415 105.096 38.0587 101.837ZM78.1238 133.959C96.3091 142.937 117.877 148.401 142.618 150.271V167.03C115.56 165.345 91.6924 159.062 71.2531 148.29C73.6604 143.568 75.9457 138.788 78.1238 133.959ZM143.265 150.325C160.977 151.716 173.986 158.439 186.699 172.763C187.733 173.928 188.948 175.638 190.357 177.619C191.1 178.666 191.894 179.782 192.729 180.909C194.907 185.792 197.252 190.624 199.782 195.396C199.664 195.281 199.547 195.166 199.429 195.051C198.314 193.959 197.161 192.83 196.025 191.797C178.328 175.718 162.531 168.313 143.265 167.075V150.325ZM194.474 183.188C197.919 187.523 201.915 191.446 206.014 191.567C206.112 191.57 206.208 191.571 206.304 191.571C209.208 191.571 211.716 190.268 213.79 188.274C219.465 192.085 225.583 195.225 232.138 197.692C228.534 201.139 224.282 203.471 219.489 204.561C212.003 206.26 206.486 201.84 201.319 196.887C198.873 192.374 196.595 187.805 194.474 183.188ZM224.733 155.269C225.572 147.522 225.376 140.248 224.11 133.677C222.94 127.599 221.043 120.536 218.431 113.316C221.595 114.065 224.916 114.583 228.399 114.883C230.971 119.442 233.432 123.997 235.813 128.406C236.971 130.549 238.107 132.653 239.225 134.7C242.003 139.783 243.956 147.076 244.622 155.104C237.784 155.888 231.108 156.044 224.733 155.269ZM210.566 80.8053C208.788 80.8819 207.084 80.8773 205.451 80.7948C204.235 79.5179 202.996 78.2867 201.728 77.1125C194.653 70.5616 186.247 66.4702 177.107 63.9308C177.704 63.5161 178.297 63.0313 178.887 62.4785C189.077 65.3422 198.495 69.8747 206.492 77.004C207.877 78.2384 209.229 79.5133 210.566 80.8053ZM178.159 62.2751C177.533 62.8359 176.904 63.3131 176.274 63.7096C175.767 63.5742 175.259 63.4392 174.747 63.3131C174.28 62.6578 173.821 61.9921 173.373 61.3138C173.338 61.2443 173.306 61.1741 173.269 61.1049C173.263 61.0935 173.255 61.0825 173.249 61.0711C174.903 61.4325 176.54 61.8343 178.159 62.2751ZM170.537 56.6456C170.551 56.6936 170.565 56.7403 170.579 56.7883C169.951 55.7039 169.335 54.6017 168.731 53.482C168.433 51.4436 168.105 49.4053 167.743 47.3833C168.73 50.5214 169.651 53.641 170.537 56.6456ZM163.438 33.4623C163.484 33.2011 163.515 32.9153 163.532 32.6086C163.955 33.9259 164.351 35.2773 164.723 36.6554C164.308 35.5785 163.88 34.5135 163.438 33.4623ZM162.26 27.232C161.652 25.7563 160.998 24.343 160.296 23.0043C160.076 22.1807 159.844 21.3889 159.597 20.6374C159.464 19.7794 159.25 18.8688 158.97 17.9309C160.517 21.1662 161.623 24.4375 162.26 27.232ZM142.119 1.8353C142.089 1.93589 142.058 2.03648 142.029 2.13708C139.791 2.05832 136.709 2.53391 133.741 3.56877C133.651 3.57892 133.562 3.58907 133.471 3.59953C133.037 3.56569 132.601 3.5743 132.162 3.63583C131.755 3.69336 131.35 3.79549 130.947 3.93146C130.175 4.04559 129.391 4.17294 128.6 4.3163C133.22 2.67358 138.342 1.89005 142.119 1.8353ZM121.909 6.95326C120.24 7.33226 118.626 7.87553 117.062 8.5563C118.86 7.62973 120.872 6.87759 122.965 6.26695C122.602 6.48813 122.25 6.7167 121.909 6.95326ZM105.878 14.9368C107.303 13.7256 109.1 12.7332 111.137 11.9196C108.994 13.4245 106.952 15.1736 104.997 17.0966C104.538 17.2086 104.097 17.3243 103.677 17.4445C104.247 16.542 104.976 15.7024 105.878 14.9368ZM97.4438 21.1403C98.5327 20.2221 100.113 19.306 102.389 18.5132C102.365 18.5698 102.336 18.6246 102.313 18.6815C100.507 19.6074 98.7015 20.5971 96.8923 21.6473C97.066 21.4744 97.2491 21.3049 97.4438 21.1403ZM94.7301 23.6863C94.569 24.0705 94.4454 24.4682 94.3537 24.8777C93.679 24.9192 93.0467 24.99 92.4603 25.0927C93.2186 24.6125 93.9748 24.1462 94.7301 23.6863ZM86.9126 32.7311C85.0521 32.2361 83.298 31.9918 81.9292 32.2635C83.6857 30.9958 85.4227 29.7717 87.1437 28.5969C86.8983 29.1961 86.7573 29.8597 86.7347 30.5921C86.7125 31.3209 86.7761 32.0334 86.9126 32.7311ZM79.0792 34.3421C79.2428 34.2209 79.4046 34.104 79.5679 33.9837C79.387 34.3621 79.2536 34.7826 79.2011 35.273C79.0527 36.6576 79.3592 38.0004 80.0944 39.2863C79.3043 39.7634 78.5117 40.2427 77.7293 40.7069C75.6093 39.5733 73.8824 38.8947 72.7855 38.9559C74.8744 37.4384 76.97 35.9002 79.0792 34.3421ZM63.6043 45.4914C63.6593 45.6661 63.746 45.8418 63.8799 46.0183C64.2309 46.4807 64.885 46.9624 65.7961 47.4571C63.9782 48.432 62.1812 49.3632 60.3951 50.2691C59.2195 50.0196 58.2435 49.8104 57.4911 49.648C59.5333 48.2908 61.5698 46.9046 63.6043 45.4914ZM55.9575 50.6629C56.185 51.041 56.4687 51.5064 56.8097 52.0555C55.7974 52.5489 54.7877 53.035 53.7834 53.5069C53.0609 53.4426 52.3916 53.3915 51.7774 53.3552C53.1755 52.4726 54.5683 51.5744 55.9575 50.6629ZM47.5176 54.1378C47.9259 53.9794 48.6616 53.9093 49.6668 53.9102C49.1748 54.215 48.6817 54.5174 48.1882 54.8183C47.8854 54.5279 47.654 54.2944 47.5176 54.1378ZM48.448 55.9242C47.4378 56.3669 46.4282 56.8074 45.423 57.2295C46.3252 56.6985 47.2237 56.1608 48.1196 55.6166C48.2252 55.7159 48.3307 55.8159 48.448 55.9242ZM38.2256 58.3738C38.6559 58.0785 39.3892 57.9511 40.3543 57.9511C41.0055 57.9511 41.7667 58.0114 42.6077 58.1145C42.0728 58.4194 41.5364 58.7208 40.9993 59.0211C39.8317 59.4791 38.6655 59.9276 37.5013 60.3589C37.5035 60.2943 37.499 60.2211 37.503 60.1587C37.5604 59.2632 37.804 58.6627 38.2256 58.3738ZM28.6396 62.0315C30.4449 61.2277 32.8489 60.9785 35.584 61.0496C33.6667 61.7371 31.7503 62.3991 29.8334 63.0177C29.0967 63.0017 28.3696 62.9987 27.6548 63.0097C27.9103 62.5526 28.2325 62.2127 28.6396 62.0315ZM18.5179 65.0945C20.8518 64.1972 23.6356 63.7914 26.6745 63.6807C26.6381 63.796 26.6036 63.9142 26.5718 64.036C25.3388 64.4091 24.1032 64.7678 22.8658 65.1145C21.3091 65.1111 19.769 65.1419 18.2526 65.2185C18.3412 65.1773 18.4256 65.1299 18.5179 65.0945ZM2.64457 71.7878C3.82789 69.5751 5.5439 68.1237 7.74604 67.4752C10.3855 66.6976 13.2324 66.2469 16.1997 66.0023C15.1235 67.267 14.4937 69.0767 14.1752 71.1609C10.0669 72.576 5.83398 73.8363 1.44328 74.9173C1.74451 73.7899 2.13809 72.7353 2.64457 71.7878ZM3.27281 98.4802C1.63486 93.2792 -0.499366 82.699 1.36605 75.2222L1.4544 75.5799C5.80744 74.5131 10.0032 73.2691 14.0778 71.8758C13.2124 79.2798 15.8557 89.5388 16.2952 91.1689C18.0955 97.8462 21.3814 104.473 26.2116 111.179C22.7305 113.947 19.1264 116.615 15.3857 119.165L15.7512 119.697C19.4968 117.144 23.1053 114.473 26.5914 111.702C29.9324 116.267 33.9827 120.869 38.7938 125.55C48.1746 134.678 58.7258 142.35 70.3895 148.562C68.2667 152.705 66.0492 156.801 63.7192 160.839L64.2806 161.161C66.6139 157.117 68.8346 153.015 70.9605 148.867C91.4878 159.684 115.453 165.989 142.618 167.676V181.064C94.8989 178.757 56.5841 163.587 28.7363 135.966C15.1855 122.525 7.09407 110.613 3.27281 98.4802ZM270.191 175.422C263.527 188.869 250.22 207.515 234.646 215.811C222.883 222.076 214.82 215.827 205.483 208.592C204.489 207.822 203.486 207.045 202.467 206.275C180.727 189.848 162.452 182.076 143.265 181.101V167.722C162.353 168.958 178.022 176.313 195.589 192.274C196.717 193.298 197.865 194.423 198.976 195.511C199.58 196.103 200.187 196.697 200.798 197.284C203.374 202.032 206.128 206.72 209.099 211.33L209.644 210.982C207.043 206.946 204.609 202.85 202.314 198.706C206.391 202.447 210.773 205.582 216.237 205.582C217.324 205.581 218.454 205.457 219.633 205.189C224.646 204.05 229.08 201.593 232.813 197.947C237.977 199.845 243.41 201.331 249.112 202.398L249.232 201.764C243.669 200.723 238.363 199.281 233.315 197.443C236.136 194.556 238.541 190.974 240.461 186.733C244.761 177.236 246.063 165.904 245.302 155.674C254.231 154.602 263.42 152.487 272.568 149.996C275.49 157.188 275.205 165.305 270.191 175.422Z" fill="#FFAF34"/>
</svg>
